<svg width="201" height="201" viewBox="0 0 201 201" fill="none" xmlns="http://www.w3.org/2000/svg">
<rect width="201" height="201" rx="100.5" fill="#FFFAF5"/>
<path fill-rule="evenodd" clip-rule="evenodd" d="M149.102 100.055L132.874 141.225L81.3835 148.909L48.9841 108.158L57.1989 87.3175C59.4581 87.0761 61.9063 86.9388 64.5528 86.9388C74.8505 86.9388 82.7233 90.5184 91.0535 94.3059C100.411 98.5606 110.346 103.078 124.943 103.078C134.772 103.078 142.817 101.757 149.102 100.055Z" fill="#FBC151"/>
<path d="M70.3629 62.6013L118.218 55.4604L148.33 93.3338L130.587 138.348L82.7314 145.489L52.6195 107.616L70.3629 62.6013Z" stroke="black" stroke-width="6.36648"/>
<path d="M34.3574 96.3098C34.3574 96.3098 42.6872 86.9389 64.5527 86.9389C86.4182 86.9389 97.351 103.078 124.943 103.078C152.535 103.078 166.071 92.6656 166.071 92.6656" stroke="black" stroke-width="6.36648"/>
</svg>
