<svg width="518" height="176" viewBox="0 0 518 176" fill="none" xmlns="http://www.w3.org/2000/svg">
<g clip-path="url(#clip0_472_4)">
<path d="M4.1 20H15.1V90H4.1V20ZM23.3383 20H37.1383L47.8383 61.9H48.0383V20H57.8383V90H46.5383L33.3383 38.9H33.1383V90H23.3383V20ZM74.6141 30H63.1141V20H97.1141V30H85.6141V90H74.6141V30ZM102.44 20H132.44V30H113.44V48.5H128.54V58.5H113.44V80H132.44V90H102.44V20ZM154.368 91C149.035 91 144.968 89.5 142.168 86.5C139.368 83.4333 137.968 79.0667 137.968 73.4V36.6C137.968 30.9333 139.368 26.6 142.168 23.6C144.968 20.5333 149.035 19 154.368 19C159.701 19 163.768 20.5333 166.568 23.6C169.368 26.6 170.768 30.9333 170.768 36.6V42.6H160.368V35.9C160.368 31.3 158.468 29 154.668 29C150.868 29 148.968 31.3 148.968 35.9V74.2C148.968 78.7333 150.868 81 154.668 81C158.468 81 160.368 78.7333 160.368 74.2V60.5H154.868V50.5H170.768V73.4C170.768 79.0667 169.368 83.4333 166.568 86.5C163.768 89.5 159.701 91 154.368 91ZM177.83 20H194.13C199.797 20 203.93 21.3333 206.53 24C209.13 26.6 210.43 30.6333 210.43 36.1V40.4C210.43 47.6667 208.03 52.2667 203.23 54.2V54.4C205.897 55.2 207.764 56.8333 208.83 59.3C209.964 61.7667 210.53 65.0667 210.53 69.2V81.5C210.53 83.5 210.597 85.1333 210.73 86.4C210.864 87.6 211.197 88.8 211.73 90H200.53C200.13 88.8667 199.864 87.8 199.73 86.8C199.597 85.8 199.53 84 199.53 81.4V68.6C199.53 65.4 198.997 63.1667 197.93 61.9C196.93 60.6333 195.164 60 192.63 60H188.83V90H177.83V20ZM192.83 50C195.03 50 196.664 49.4333 197.73 48.3C198.864 47.1667 199.43 45.2667 199.43 42.6V37.2C199.43 34.6667 198.964 32.8333 198.03 31.7C197.164 30.5667 195.764 30 193.83 30H188.83V50H192.83ZM226.663 20H241.563L252.963 90H241.963L239.963 76.1V76.3H227.463L225.463 90H215.263L226.663 20ZM238.663 66.8L233.763 32.2H233.563L228.762 66.8H238.663ZM262.309 30H250.809V20H284.809V30H273.309V90H262.309V30ZM290.135 20H301.135V90H290.135V20ZM325.273 91C319.873 91 315.74 89.4667 312.873 86.4C310.007 83.3333 308.573 79 308.573 73.4V36.6C308.573 31 310.007 26.6667 312.873 23.6C315.74 20.5333 319.873 19 325.273 19C330.673 19 334.807 20.5333 337.673 23.6C340.54 26.6667 341.973 31 341.973 36.6V73.4C341.973 79 340.54 83.3333 337.673 86.4C334.807 89.4667 330.673 91 325.273 91ZM325.273 81C329.073 81 330.973 78.7 330.973 74.1V35.9C330.973 31.3 329.073 29 325.273 29C321.473 29 319.573 31.3 319.573 35.9V74.1C319.573 78.7 321.473 81 325.273 81ZM349.413 20H363.213L373.913 61.9H374.113V20H383.913V90H372.613L359.413 38.9H359.213V90H349.413V20ZM408.104 20H424.704C430.371 20 434.504 21.3333 437.104 24C439.704 26.6 441.004 30.6333 441.004 36.1V38.9C441.004 42.5 440.404 45.4333 439.204 47.7C438.071 49.9667 436.304 51.6 433.904 52.6V52.8C439.371 54.6667 442.104 59.5333 442.104 67.4V73.4C442.104 78.8 440.671 82.9333 437.804 85.8C435.004 88.6 430.871 90 425.404 90H408.104V20ZM423.404 48.5C425.604 48.5 427.237 47.9333 428.304 46.8C429.437 45.6667 430.004 43.7667 430.004 41.1V37.2C430.004 34.6667 429.537 32.8333 428.604 31.7C427.737 30.5667 426.337 30 424.404 30H419.104V48.5H423.404ZM425.404 80C427.337 80 428.771 79.5 429.704 78.5C430.637 77.4333 431.104 75.6333 431.104 73.1V67C431.104 63.8 430.537 61.6 429.404 60.4C428.337 59.1333 426.537 58.5 424.004 58.5H419.104V80H425.404ZM448.534 20H478.534V30H459.534V48.5H474.634V58.5H459.534V80H478.534V90H448.534V20ZM484.862 20H514.862V30H495.862V48.5H510.962V58.5H495.862V80H514.862V90H484.862V20Z" fill="white"/>
<path d="M367.812 120.6H377.05L384.118 164H377.298L376.058 155.382V155.506H368.308L367.068 164H360.744L367.812 120.6ZM375.252 149.616L372.214 128.164H372.09L369.114 149.616H375.252ZM397.226 164.62C393.919 164.62 391.398 163.69 389.662 161.83C387.926 159.929 387.058 157.221 387.058 153.708V120.6H393.878V154.204C393.878 155.692 394.167 156.767 394.746 157.428C395.366 158.089 396.234 158.42 397.35 158.42C398.466 158.42 399.313 158.089 399.892 157.428C400.512 156.767 400.822 155.692 400.822 154.204V120.6H407.394V153.708C407.394 157.221 406.526 159.929 404.79 161.83C403.054 163.69 400.532 164.62 397.226 164.62ZM421.117 164.62C417.81 164.62 415.31 163.69 413.615 161.83C411.92 159.929 411.073 157.221 411.073 153.708V151.228H417.521V154.204C417.521 157.015 418.699 158.42 421.055 158.42C422.212 158.42 423.08 158.089 423.659 157.428C424.279 156.725 424.589 155.609 424.589 154.08C424.589 152.261 424.176 150.67 423.349 149.306C422.522 147.901 420.993 146.227 418.761 144.284C415.95 141.804 413.987 139.572 412.871 137.588C411.755 135.563 411.197 133.289 411.197 130.768C411.197 127.337 412.065 124.692 413.801 122.832C415.537 120.931 418.058 119.98 421.365 119.98C424.63 119.98 427.09 120.931 428.743 122.832C430.438 124.692 431.285 127.379 431.285 130.892V132.69H424.837V130.458C424.837 128.97 424.548 127.895 423.969 127.234C423.39 126.531 422.543 126.18 421.427 126.18C419.154 126.18 418.017 127.565 418.017 130.334C418.017 131.905 418.43 133.372 419.257 134.736C420.125 136.1 421.675 137.753 423.907 139.696C426.759 142.176 428.722 144.429 429.797 146.454C430.872 148.479 431.409 150.856 431.409 153.584C431.409 157.139 430.52 159.867 428.743 161.768C427.007 163.669 424.465 164.62 421.117 164.62ZM440.651 126.8H433.521V120.6H454.601V126.8H447.471V164H440.651V126.8ZM457.903 120.6H468.009C471.523 120.6 474.085 121.427 475.697 123.08C477.309 124.692 478.115 127.193 478.115 130.582V133.248C478.115 137.753 476.627 140.605 473.651 141.804V141.928C475.305 142.424 476.462 143.437 477.123 144.966C477.826 146.495 478.177 148.541 478.177 151.104V158.73C478.177 159.97 478.219 160.983 478.301 161.768C478.384 162.512 478.591 163.256 478.921 164H471.977C471.729 163.297 471.564 162.636 471.481 162.016C471.399 161.396 471.357 160.28 471.357 158.668V150.732C471.357 148.748 471.027 147.363 470.365 146.578C469.745 145.793 468.65 145.4 467.079 145.4H464.723V164H457.903V120.6ZM467.203 139.2C468.567 139.2 469.58 138.849 470.241 138.146C470.944 137.443 471.295 136.265 471.295 134.612V131.264C471.295 129.693 471.006 128.557 470.427 127.854C469.89 127.151 469.022 126.8 467.823 126.8H464.723V139.2H467.203ZM482.909 120.6H489.729V164H482.909V120.6ZM500.107 120.6H509.345L516.413 164H509.593L508.353 155.382V155.506H500.603L499.363 164H493.039L500.107 120.6ZM507.547 149.616L504.509 128.164H504.385L501.409 149.616H507.547Z" fill="#FBC151"/>
</g>
<defs>
<clipPath id="clip0_472_4">
<rect width="518" height="176" fill="white"/>
</clipPath>
</defs>
</svg>
