<svg width="180" height="120" viewBox="0 0 180 120" fill="none" xmlns="http://www.w3.org/2000/svg">
<g clip-path="url(#clip0_632_265)">
<rect width="180" height="120" fill="#125189"/>
<rect width="20.8695" height="226.973" transform="matrix(0.556912 -0.830571 -0.830571 -0.556912 178.448 131.869)" fill="#D9D9D9"/>
<rect width="4.7" height="113.438" transform="matrix(0.556912 -0.830571 -0.830571 -0.556912 87.2178 66.0786)" fill="#F74B4B"/>
<rect width="4.7" height="114.242" transform="matrix(0.556912 -0.830571 -0.830571 -0.556912 187.517 123.308)" fill="#F74B4B"/>
<rect x="1.55371" y="131.869" width="20.8695" height="226.973" transform="rotate(-123.843 1.55371 131.869)" fill="#D9D9D9"/>
<rect x="88.2168" y="58.8901" width="4.70146" height="116.689" transform="rotate(-123.843 88.2168 58.8901)" fill="#F74B4B"/>
<rect x="-0.381836" y="128.309" width="4.70146" height="111.876" transform="rotate(-123.843 -0.381836 128.309)" fill="#F74B4B"/>
<rect x="79" width="22" height="120" fill="#D9D9D9"/>
<rect y="71" width="22" height="180" transform="rotate(-90 0 71)" fill="#D9D9D9"/>
<rect y="68" width="16" height="180" transform="rotate(-90 0 68)" fill="#F74B4B"/>
<rect x="82" width="16" height="120" fill="#F74B4B"/>
</g>
<defs>
<clipPath id="clip0_632_265">
<rect width="180" height="120" fill="white"/>
</clipPath>
</defs>
</svg>
