<svg xmlns="http://www.w3.org/2000/svg" xmlns:xlink="http://www.w3.org/1999/xlink" version="1.1" id="Layer_1" x="0px" y="0px" viewBox="0 0 848.9 152.7" style="enable-background:new 0 0 848.9 152.7;" xml:space="preserve">
<style type="text/css">
	.st0{fill:none;}
	.st1{fill:none;stroke:#202020;stroke-width:4;stroke-miterlimit:10;}
	.st2{fill:#FF9C00;}
	.st3{fill:url(#SVGID_1_);}
	.st4{fill:#202020;}
	.st5{fill:none;stroke:#202020;stroke-width:2.581;stroke-miterlimit:10;}
	.st6{enable-background:new    ;}
	.st7{fill:none;stroke:#202020;stroke-width:1.72;stroke-miterlimit:10;}
</style>
<pattern y="152.7" width="50" height="50" patternUnits="userSpaceOnUse" id="New_Pattern_2" viewBox="51.9 -101.9 50 50" style="overflow:visible;" fill="#202020">
	<g>
		<rect x="51.9" y="-101.9" class="st0" width="50" height="50" fill="#202020"/>
		<rect x="51.9" y="-101.9" class="st0" width="50" height="50" fill="#202020"/>
		<line class="st1" x1="101.4" y1="-152.4" x2="152.4" y2="-101.4" fill="#202020"/>
		<line class="st1" x1="51.4" y1="-152.4" x2="102.4" y2="-101.4" fill="#202020"/>
		<line class="st1" x1="1.4" y1="-152.4" x2="52.4" y2="-101.4" fill="#202020"/>
		<line class="st1" x1="101.4" y1="-102.4" x2="152.4" y2="-51.4" fill="#202020"/>
		<line class="st1" x1="51.4" y1="-102.4" x2="102.4" y2="-51.4" fill="#202020"/>
		<line class="st1" x1="1.4" y1="-102.4" x2="52.4" y2="-51.4" fill="#202020"/>
		<line class="st1" x1="101.4" y1="-52.4" x2="152.4" y2="-1.4" fill="#202020"/>
		<line class="st1" x1="51.4" y1="-52.4" x2="102.4" y2="-1.4" fill="#202020"/>
		<line class="st1" x1="1.4" y1="-52.4" x2="52.4" y2="-1.4" fill="#202020"/>
	</g>
</pattern>
<title>Integration_bee_logo</title>
<rect x="69.9" y="2" transform="matrix(0.5959 -0.8031 0.8031 0.5959 27.1386 59.6482)" class="st2" width="5.8" height="1.7" fill="#202020"/>
<path class="st2" d="M94.9,2.4L94.9,2.4L94.9,2.4L94.9,2.4l-4.3-0.5l-0.2,1.7l5.8,0.7l0.2-1.7L94.9,2.4L94.9,2.4z" fill="#202020"/>
<rect x="63" y="11.3" transform="matrix(0.5959 -0.8031 0.8031 0.5959 16.8257 57.8552)" class="st2" width="5.8" height="1.7" fill="#202020"/>
<path class="st2" d="M81.7,0.9L81.7,0.9L81.7,0.9L81.7,0.9L81.7,0.9L81.7,0.9L81.7,0.9L81.7,0.9L81.7,0.9l-2.7-0.3l-0.2,1.7L84.6,3  l0.2-1.7L81.7,0.9L81.7,0.9z" fill="#202020"/>
<path class="st2" d="M54.5,29.1l-1.4-1h0l0,0l0,0l0,0l0,0l0,0l0,0l0,0l0,0l0,0l0,0l0,0l0,0l0,0l0,0l0,0l0,0l0,0l0,0l0,0l0,0l0,0l0,0  l0,0l0,0l0,0l0,0l0,0l0,0l0,0v0l0,0l0,0l0,0l0,0l0,0L53,28.2l0,0l-3.3,4.5l1.4,1L54.5,29.1z" fill="#202020"/>
<path class="st2" d="M154.2,9.3l-3.6-0.4h0h0h0l-2.2-0.3l-0.2,1.7L154,11L154.2,9.3z" fill="#202020"/>
<rect x="42.2" y="39.4" transform="matrix(0.5959 -0.8031 0.8031 0.5959 -14.1122 52.4775)" class="st2" width="5.8" height="1.7" fill="#202020"/>
<rect x="166.7" y="34.2" transform="matrix(0.9176 -0.3976 0.3976 0.9176 -0.9599 69.6648)" class="st2" width="1.7" height="5.8" fill="#202020"/>
<rect x="56" y="20.7" transform="matrix(0.5959 -0.8031 0.8031 0.5959 6.5131 56.0635)" class="st2" width="5.8" height="1.7" fill="#202020"/>
<rect x="35.2" y="48.7" transform="matrix(0.5959 -0.8031 0.8031 0.5959 -24.4277 50.6842)" class="st2" width="5.8" height="1.7" fill="#202020"/>
<path class="st2" d="M119.5,5.3L119.5,5.3L119.5,5.3L119.5,5.3l-5.8-0.7l-0.2,1.7l5.8,0.7L119.5,5.3L119.5,5.3z" fill="#202020"/>
<path class="st2" d="M164.1,27.1l-0.1-0.1l0,0l0-0.1l0,0v0l0,0v0l0,0v0l0,0l0,0v0l0,0v0l0,0l0-0.1l0,0l0,0v0l0,0l0,0v0v0l-1.4-3.3  l-1.6,0.7l2.3,5.3l1.6-0.7C164.9,28.8,164.6,28.1,164.1,27.1L164.1,27.1z" fill="#202020"/>
<rect x="157.4" y="12.9" transform="matrix(0.9176 -0.3976 0.3976 0.9176 6.7745 64.2253)" class="st2" width="1.7" height="5.8" fill="#202020"/>
<rect x="175.9" y="55.6" transform="matrix(0.9176 -0.3976 0.3976 0.9176 -8.69 75.1098)" class="st2" width="1.7" height="5.8" fill="#202020"/>
<rect x="171.3" y="44.9" transform="matrix(0.9176 -0.3976 0.3976 0.9176 -4.8239 72.3887)" class="st2" width="1.7" height="5.8" fill="#202020"/>
<path class="st2" d="M107.2,3.8L107.2,3.8L107.2,3.8L107.2,3.8l-0.1,0l0,0l-4.9-0.6L102,5l5.8,0.7l0.2-1.7L107.2,3.8L107.2,3.8z" fill="#202020"/>
<path class="st2" d="M140.4,7.7L140.4,7.7L140.4,7.7l-3.5-0.4l0,0L136.7,9l5.8,0.7l0.2-1.7L140.4,7.7z" fill="#202020"/>
<path class="st2" d="M129.4,6.4L129.4,6.4l-4.1-0.5l-0.2,1.7l5.8,0.7l0.2-1.7L129.4,6.4z" fill="#202020"/>
<pattern id="SVGID_1_" xlink:href="#New_Pattern_2" patternTransform="matrix(0.43 0 0 -0.43 -4466.916 -10365.6318)" fill="#202020">
</pattern>
<path class="st3" d="M58.3,141.9L25.8,67l7.2-9.7c9-3.9,18.7-6,28.5-6.1c1.3,0,2.6,0,3.8,0.1c14.5,0.9,24.3,6.3,34.7,12.1  c9.4,5.2,19.1,10.6,32.7,12.7c3.6,0.5,7.3,0.8,11,0.8c11.7,0,24.1-2.8,36.9-8.3l7.4,17.2l-48.7,65.6L58.3,141.9z" fill="#202020"/>
<path class="st4" d="M61.5,52.5c1.3,0,2.5,0,3.8,0.1c14.2,0.8,23.9,6.2,34.1,11.9c9.5,5.3,19.3,10.7,33.2,12.8  c3.7,0.6,7.4,0.8,11.2,0.8c11.5,0,23.7-2.7,36.2-7.9l6.6,15.3l-47.8,64.4l-79.7-9.2L27.3,67.1l6.6-8.8C42.6,54.5,52,52.5,61.5,52.5   M61.5,49.9c-10.1,0.1-20.1,2.3-29.4,6.3l-7.9,10.6l33.1,76.3l82.6,9.5l49.6-66.8l-8.2-19c-14.8,6.6-27.3,8.7-37.5,8.7  c-3.6,0-7.2-0.3-10.8-0.8C104.8,70.5,93.6,51.7,65.5,50C64.1,49.9,62.8,49.9,61.5,49.9L61.5,49.9z" fill="#202020"/>
<path class="st5" d="M0.8,77.1c14.6-12.5,37.4-27.8,64.3-26.2c28.2,1.7,39.3,20.5,67.5,24.7c17.3,2.6,43.7,0.2,79.8-26.8" fill="#202020"/>
<g class="st6">
	<path class="st4" d="M252,101.2v-1.5h9c0.9,0,1.6-0.2,1.9-0.6c0.3-0.4,0.5-1,0.5-1.9V42.8h-11.3v-1.5h24.2v1.5h-8.8   c-0.9,0-1.6,0.2-1.9,0.6c-0.3,0.4-0.5,1-0.5,1.9v54.4h11.2v1.5H252z" fill="#202020"/>
</g>
<g class="st6">
	<path class="st7" d="M252,101.2v-1.5h9c0.9,0,1.6-0.2,1.9-0.6c0.3-0.4,0.5-1,0.5-1.9V42.8h-11.3v-1.5h24.2v1.5h-8.8   c-0.9,0-1.6,0.2-1.9,0.6c-0.3,0.4-0.5,1-0.5,1.9v54.4h11.2v1.5H252z" fill="#202020"/>
</g>
<g class="st6">
	<path class="st4" d="M283.7,101.2v-1.5h3.2c0.9,0,1.6-0.2,1.9-0.6c0.3-0.4,0.5-1,0.5-1.9V69.6c0-0.9-0.2-1.5-0.5-1.9   c-0.3-0.4-1-0.6-1.9-0.6h-3.2v-1.5h7.2v6.5c1.1-2.2,2.8-4.1,5.2-5.7c2.4-1.6,5.3-2.4,8.6-2.4c4.5,0,8.1,1.3,10.9,3.9   c2.8,2.6,4.2,6.3,4.2,11.2v20.4h4.7v1.5h-11.9v-1.5h3.2c0.9,0,1.6-0.2,1.9-0.6c0.3-0.4,0.5-1,0.5-1.9v-18c0-4.4-1.3-7.8-3.8-10.1   c-2.5-2.3-5.8-3.4-9.7-3.4c-2.6,0-4.9,0.5-7,1.6c-2.1,1.1-3.8,2.6-5,4.5c-1.2,1.9-1.8,4.2-1.8,6.8v20.9h4.7v1.5H283.7z" fill="#202020"/>
</g>
<g class="st6">
	<path class="st7" d="M283.7,101.2v-1.5h3.2c0.9,0,1.6-0.2,1.9-0.6c0.3-0.4,0.5-1,0.5-1.9V69.6c0-0.9-0.2-1.5-0.5-1.9   c-0.3-0.4-1-0.6-1.9-0.6h-3.2v-1.5h7.2v6.5c1.1-2.2,2.8-4.1,5.2-5.7c2.4-1.6,5.3-2.4,8.6-2.4c4.5,0,8.1,1.3,10.9,3.9   c2.8,2.6,4.2,6.3,4.2,11.2v20.4h4.7v1.5h-11.9v-1.5h3.2c0.9,0,1.6-0.2,1.9-0.6c0.3-0.4,0.5-1,0.5-1.9v-18c0-4.4-1.3-7.8-3.8-10.1   c-2.5-2.3-5.8-3.4-9.7-3.4c-2.6,0-4.9,0.5-7,1.6c-2.1,1.1-3.8,2.6-5,4.5c-1.2,1.9-1.8,4.2-1.8,6.8v20.9h4.7v1.5H283.7z" fill="#202020"/>
</g>
<g class="st6">
	<path class="st4" d="M349.3,102.7c-4,0-7-0.5-9.1-1.5c-2.1-1-3.5-2.5-4.2-4.4c-0.7-1.9-1.1-4.1-1.1-6.8V69.7c0-1-0.2-1.7-0.5-2   c-0.3-0.3-1-0.5-1.8-0.5h-7.1v-1.5h9.5V55c0-0.9-0.2-1.5-0.5-1.9c-0.3-0.4-1-0.6-1.9-0.6h-3.2v-1.5h7.2v14.6h10.4v1.5h-10.4V90   c0,2.4,0.3,4.4,0.8,6.1c0.6,1.7,1.7,2.9,3.6,3.7c1.8,0.8,4.6,1.3,8.4,1.4V102.7z" fill="#202020"/>
</g>
<g class="st6">
	<path class="st7" d="M349.3,102.7c-4,0-7-0.5-9.1-1.5c-2.1-1-3.5-2.5-4.2-4.4c-0.7-1.9-1.1-4.1-1.1-6.8V69.7c0-1-0.2-1.7-0.5-2   c-0.3-0.3-1-0.5-1.8-0.5h-7.1v-1.5h9.5V55c0-0.9-0.2-1.5-0.5-1.9c-0.3-0.4-1-0.6-1.9-0.6h-3.2v-1.5h7.2v14.6h10.4v1.5h-10.4V90   c0,2.4,0.3,4.4,0.8,6.1c0.6,1.7,1.7,2.9,3.6,3.7c1.8,0.8,4.6,1.3,8.4,1.4V102.7z" fill="#202020"/>
</g>
<g class="st6">
	<path class="st4" d="M371.6,102.7c-3.3,0-6.3-0.8-8.9-2.4c-2.6-1.6-4.7-3.9-6.2-6.8c-1.5-2.9-2.3-6.2-2.3-10   c0.1-3.8,0.8-7.1,2.3-10c1.5-2.9,3.5-5.2,6.1-6.8c2.6-1.7,5.6-2.5,9-2.5c3.3,0,6.1,0.7,8.6,2c2.5,1.4,4.4,3.3,5.8,5.7   c1.4,2.4,2.1,5.2,2.1,8.3v1.5l-32.3-0.1l-0.1,1.9c-0.1,3.2,0.5,6.1,1.8,8.8c1.3,2.7,3.2,4.8,5.7,6.4c2.5,1.6,5.2,2.4,8.3,2.5   c3.3-0.1,6-0.6,8.2-1.6c2.2-1,3.8-2.3,4.9-4l1.2,1c-1.2,1.8-3.1,3.3-5.5,4.4C377.9,102.1,375,102.7,371.6,102.7z M386.5,80.2   c0.1-2.8-0.6-5.3-1.8-7.5c-1.3-2.2-3-3.9-5.3-5.1c-2.2-1.2-4.8-1.9-7.8-1.9c-4.1,0.1-7.6,1.4-10.4,4.1c-2.8,2.6-4.5,6.1-5.2,10.3   L386.5,80.2z" fill="#202020"/>
</g>
<g class="st6">
	<path class="st7" d="M371.6,102.7c-3.3,0-6.3-0.8-8.9-2.4c-2.6-1.6-4.7-3.9-6.2-6.8c-1.5-2.9-2.3-6.2-2.3-10   c0.1-3.8,0.8-7.1,2.3-10c1.5-2.9,3.5-5.2,6.1-6.8c2.6-1.7,5.6-2.5,9-2.5c3.3,0,6.1,0.7,8.6,2c2.5,1.4,4.4,3.3,5.8,5.7   c1.4,2.4,2.1,5.2,2.1,8.3v1.5l-32.3-0.1l-0.1,1.9c-0.1,3.2,0.5,6.1,1.8,8.8c1.3,2.7,3.2,4.8,5.7,6.4c2.5,1.6,5.2,2.4,8.3,2.5   c3.3-0.1,6-0.6,8.2-1.6c2.2-1,3.8-2.3,4.9-4l1.2,1c-1.2,1.8-3.1,3.3-5.5,4.4C377.9,102.1,375,102.7,371.6,102.7z M386.5,80.2   c0.1-2.8-0.6-5.3-1.8-7.5c-1.3-2.2-3-3.9-5.3-5.1c-2.2-1.2-4.8-1.9-7.8-1.9c-4.1,0.1-7.6,1.4-10.4,4.1c-2.8,2.6-4.5,6.1-5.2,10.3   L386.5,80.2z" fill="#202020"/>
</g>
<g class="st6">
	<path class="st4" d="M416.6,124.1c-3.3,0-6.2-0.7-8.9-2c-2.6-1.3-4.5-3.1-5.7-5.4c-0.8-1.6-1.2-2.9-1.2-3.7c0-0.8,0.2-1.4,0.6-1.8   c0.5-0.5,1.1-0.6,1.7-0.3c0.6,0.2,1,0.7,1.1,1.5c0.1,0.7,0,1.2-0.3,1.5c-0.3,0.3-0.5,0.6-0.7,0.9c-0.2,0.3-0.1,0.8,0.3,1.7   c0.8,1.6,2.3,3.1,4.6,4.4c2.2,1.3,5,1.9,8.3,1.8c5-0.1,8.9-1.7,11.6-4.8c2.8-3.2,4.1-7.5,4.1-12.9V91.7c-1.3,3.4-3.5,6.1-6.4,8.1   c-2.9,2-6.4,3-10.3,3c-3.6,0-6.8-0.8-9.5-2.4c-2.8-1.6-4.9-3.9-6.5-6.8c-1.5-2.9-2.3-6.2-2.3-10c0-3.8,0.8-7.1,2.3-10   c1.5-2.9,3.7-5.2,6.5-6.8c2.8-1.6,5.9-2.4,9.5-2.4c4,0,7.4,1,10.3,3c2.9,2,5.1,4.7,6.4,8.1v-9.5h7.3v1.5h-3.2   c-1.7,0-2.5,0.8-2.5,2.4v35.1c0,5.9-1.6,10.6-4.7,14.1C426.1,122.4,421.9,124.1,416.6,124.1z M415.6,101.2c3.3-0.1,6.1-0.8,8.6-2.4   c2.5-1.5,4.5-3.6,5.9-6.2c1.4-2.6,2.1-5.7,2.1-9.1c0-3.4-0.7-6.5-2.1-9.1c-1.4-2.6-3.4-4.7-5.9-6.3c-2.5-1.5-5.4-2.3-8.6-2.3   c-3.3,0-6.1,0.8-8.7,2.3c-2.5,1.5-4.5,3.6-5.9,6.3c-1.4,2.6-2.1,5.7-2.1,9.1c0,3.4,0.7,6.5,2.1,9.1c1.4,2.6,3.4,4.7,5.9,6.2   C409.5,100.3,412.3,101.1,415.6,101.2z" fill="#202020"/>
</g>
<g class="st6">
	<path class="st7" d="M416.6,124.1c-3.3,0-6.2-0.7-8.9-2c-2.6-1.3-4.5-3.1-5.7-5.4c-0.8-1.6-1.2-2.9-1.2-3.7c0-0.8,0.2-1.4,0.6-1.8   c0.5-0.5,1.1-0.6,1.7-0.3c0.6,0.2,1,0.7,1.1,1.5c0.1,0.7,0,1.2-0.3,1.5c-0.3,0.3-0.5,0.6-0.7,0.9c-0.2,0.3-0.1,0.8,0.3,1.7   c0.8,1.6,2.3,3.1,4.6,4.4c2.2,1.3,5,1.9,8.3,1.8c5-0.1,8.9-1.7,11.6-4.8c2.8-3.2,4.1-7.5,4.1-12.9V91.7c-1.3,3.4-3.5,6.1-6.4,8.1   c-2.9,2-6.4,3-10.3,3c-3.6,0-6.8-0.8-9.5-2.4c-2.8-1.6-4.9-3.9-6.5-6.8c-1.5-2.9-2.3-6.2-2.3-10c0-3.8,0.8-7.1,2.3-10   c1.5-2.9,3.7-5.2,6.5-6.8c2.8-1.6,5.9-2.4,9.5-2.4c4,0,7.4,1,10.3,3c2.9,2,5.1,4.7,6.4,8.1v-9.5h7.3v1.5h-3.2   c-1.7,0-2.5,0.8-2.5,2.4v35.1c0,5.9-1.6,10.6-4.7,14.1C426.1,122.4,421.9,124.1,416.6,124.1z M415.6,101.2c3.3-0.1,6.1-0.8,8.6-2.4   c2.5-1.5,4.5-3.6,5.9-6.2c1.4-2.6,2.1-5.7,2.1-9.1c0-3.4-0.7-6.5-2.1-9.1c-1.4-2.6-3.4-4.7-5.9-6.3c-2.5-1.5-5.4-2.3-8.6-2.3   c-3.3,0-6.1,0.8-8.7,2.3c-2.5,1.5-4.5,3.6-5.9,6.3c-1.4,2.6-2.1,5.7-2.1,9.1c0,3.4,0.7,6.5,2.1,9.1c1.4,2.6,3.4,4.7,5.9,6.2   C409.5,100.3,412.3,101.1,415.6,101.2z" fill="#202020"/>
</g>
<g class="st6">
	<path class="st4" d="M446.2,101.2v-1.5h3.2c0.9,0,1.6-0.2,1.9-0.6c0.3-0.4,0.5-1,0.5-1.9V69.6c0-0.9-0.2-1.5-0.5-1.9   c-0.3-0.4-1-0.6-1.9-0.6h-3.2v-1.5h7.2V72c0.9-2.3,2.4-4.2,4.6-5.6c2.2-1.4,4.6-2.1,7.3-2.1c2.6,0,4.7,0.5,6.3,1.6   c1.6,1.1,2.7,2.3,3.3,3.7c0.6,1.4,0.6,2.5,0,3.4c-0.4,0.6-0.9,0.8-1.5,0.5c-0.6-0.2-1-0.6-1.1-1.1c-0.1-0.6,0-1.1,0.3-1.3   c0.3-0.2,0.5-0.5,0.6-0.7c0.1-0.3,0-0.7-0.4-1.4c-0.6-1-1.6-1.8-3.1-2.4c-1.5-0.6-2.9-0.9-4.4-0.9c-2.8,0-5.1,0.7-6.9,2.1   c-1.7,1.4-3,3.1-3.8,5c-0.8,1.9-1.2,3.7-1.2,5.4v21.5h4.7v1.5H446.2z" fill="#202020"/>
</g>
<g class="st6">
	<path class="st7" d="M446.2,101.2v-1.5h3.2c0.9,0,1.6-0.2,1.9-0.6c0.3-0.4,0.5-1,0.5-1.9V69.6c0-0.9-0.2-1.5-0.5-1.9   c-0.3-0.4-1-0.6-1.9-0.6h-3.2v-1.5h7.2V72c0.9-2.3,2.4-4.2,4.6-5.6c2.2-1.4,4.6-2.1,7.3-2.1c2.6,0,4.7,0.5,6.3,1.6   c1.6,1.1,2.7,2.3,3.3,3.7c0.6,1.4,0.6,2.5,0,3.4c-0.4,0.6-0.9,0.8-1.5,0.5c-0.6-0.2-1-0.6-1.1-1.1c-0.1-0.6,0-1.1,0.3-1.3   c0.3-0.2,0.5-0.5,0.6-0.7c0.1-0.3,0-0.7-0.4-1.4c-0.6-1-1.6-1.8-3.1-2.4c-1.5-0.6-2.9-0.9-4.4-0.9c-2.8,0-5.1,0.7-6.9,2.1   c-1.7,1.4-3,3.1-3.8,5c-0.8,1.9-1.2,3.7-1.2,5.4v21.5h4.7v1.5H446.2z" fill="#202020"/>
</g>
<g class="st6">
	<path class="st4" d="M495.6,102.7c-2.5,0-4.8-0.5-6.8-1.5c-2-1-3.6-2.4-4.8-4.1c-1.2-1.8-1.8-3.8-1.8-6.1c0-3.3,1.3-6.1,3.9-8.2   c2.6-2.2,6-3.4,10.3-3.5c2.9-0.1,5.4,0.1,7.6,0.6c2.2,0.5,4.2,1.1,6,1.7v-4.2c0-3.4-1.1-6.2-3.4-8.5c-2.3-2.3-5.7-3.3-10.2-3.1   c-1.9,0.1-3.7,0.5-5.4,1.4c-1.7,0.9-3,2-3.8,3.3c-0.3,0.5-0.4,1-0.2,1.4c0.1,0.4,0.3,0.8,0.4,1.1c0.1,0.4,0.1,0.9-0.2,1.4   c-0.2,0.4-0.6,0.7-1.1,0.7s-1,0-1.4-0.3c-0.8-0.6-1-1.5-0.5-2.6c0.9-2.3,2.5-4.2,4.8-5.7c2.3-1.5,4.8-2.2,7.5-2.4   c4.9-0.2,8.6,0.9,11.2,3.5c2.6,2.6,3.9,5.7,3.9,9.5v14c0,2.5,0.8,4.5,2.3,6.1c1.5,1.6,3.4,2.4,5.8,2.4v1.5c-2.4,0-4.5-0.7-6.1-2   c-1.6-1.4-2.6-3-3-4.8c-0.8,1.8-1.9,3.3-3.5,4.5c-1.6,1.2-3.4,2.2-5.4,2.8C499.5,102.3,497.5,102.7,495.6,102.7z M495.6,101.2   c2.1,0,4.3-0.4,6.5-1.3c2.2-0.8,4.1-2.1,5.7-3.8c1.5-1.7,2.3-3.9,2.3-6.5v-6.4c-1.5-0.8-3.3-1.4-5.6-1.9c-2.3-0.5-4.9-0.7-8-0.6   c-3.8,0.1-6.9,1-9.2,3c-2.3,1.9-3.4,4.3-3.4,7.2c0,3,1.1,5.5,3.4,7.4C489.4,100.1,492.2,101.1,495.6,101.2z" fill="#202020"/>
</g>
<g class="st6">
	<path class="st7" d="M495.6,102.7c-2.5,0-4.8-0.5-6.8-1.5c-2-1-3.6-2.4-4.8-4.1c-1.2-1.8-1.8-3.8-1.8-6.1c0-3.3,1.3-6.1,3.9-8.2   c2.6-2.2,6-3.4,10.3-3.5c2.9-0.1,5.4,0.1,7.6,0.6c2.2,0.5,4.2,1.1,6,1.7v-4.2c0-3.4-1.1-6.2-3.4-8.5c-2.3-2.3-5.7-3.3-10.2-3.1   c-1.9,0.1-3.7,0.5-5.4,1.4c-1.7,0.9-3,2-3.8,3.3c-0.3,0.5-0.4,1-0.2,1.4c0.1,0.4,0.3,0.8,0.4,1.1c0.1,0.4,0.1,0.9-0.2,1.4   c-0.2,0.4-0.6,0.7-1.1,0.7s-1,0-1.4-0.3c-0.8-0.6-1-1.5-0.5-2.6c0.9-2.3,2.5-4.2,4.8-5.7c2.3-1.5,4.8-2.2,7.5-2.4   c4.9-0.2,8.6,0.9,11.2,3.5c2.6,2.6,3.9,5.7,3.9,9.5v14c0,2.5,0.8,4.5,2.3,6.1c1.5,1.6,3.4,2.4,5.8,2.4v1.5c-2.4,0-4.5-0.7-6.1-2   c-1.6-1.4-2.6-3-3-4.8c-0.8,1.8-1.9,3.3-3.5,4.5c-1.6,1.2-3.4,2.2-5.4,2.8C499.5,102.3,497.5,102.7,495.6,102.7z M495.6,101.2   c2.1,0,4.3-0.4,6.5-1.3c2.2-0.8,4.1-2.1,5.7-3.8c1.5-1.7,2.3-3.9,2.3-6.5v-6.4c-1.5-0.8-3.3-1.4-5.6-1.9c-2.3-0.5-4.9-0.7-8-0.6   c-3.8,0.1-6.9,1-9.2,3c-2.3,1.9-3.4,4.3-3.4,7.2c0,3,1.1,5.5,3.4,7.4C489.4,100.1,492.2,101.1,495.6,101.2z" fill="#202020"/>
</g>
<g class="st6">
	<path class="st4" d="M543.5,102.7c-4,0-7-0.5-9.1-1.5c-2.1-1-3.5-2.5-4.2-4.4c-0.7-1.9-1.1-4.1-1.1-6.8V69.7c0-1-0.2-1.7-0.5-2   c-0.3-0.3-1-0.5-1.8-0.5h-7.1v-1.5h9.5V55c0-0.9-0.2-1.5-0.5-1.9c-0.3-0.4-1-0.6-1.9-0.6h-3.2v-1.5h7.2v14.6h10.4v1.5h-10.4V90   c0,2.4,0.3,4.4,0.8,6.1c0.6,1.7,1.7,2.9,3.6,3.7c1.8,0.8,4.6,1.3,8.4,1.4V102.7z" fill="#202020"/>
	<path class="st4" d="M547.9,101.2v-1.5h5.1c0.9,0,1.6-0.2,1.9-0.6c0.3-0.4,0.5-1,0.5-1.9V69.6c0-0.9-0.2-1.5-0.5-1.9   c-0.3-0.4-1-0.6-1.9-0.6h-3.2v-1.5h7.2v34h6.5v1.5H547.9z M556,53c-0.9,0-1.7-0.3-2.3-0.9s-0.9-1.4-0.9-2.3c0-0.9,0.3-1.6,0.9-2.1   c0.6-0.6,1.4-0.8,2.3-0.8c0.9,0,1.6,0.3,2.1,0.8c0.6,0.6,0.8,1.3,0.8,2.1c0,0.9-0.3,1.7-0.8,2.3C557.6,52.6,556.9,53,556,53z" fill="#202020"/>
	<path class="st4" d="M589.5,102.7c-3.5,0-6.7-0.8-9.4-2.4c-2.7-1.6-4.9-3.9-6.5-6.8c-1.6-2.9-2.4-6.2-2.4-10c0-3.8,0.8-7.1,2.3-10   c1.5-2.9,3.7-5.2,6.5-6.8c2.8-1.6,5.9-2.4,9.5-2.4c3.6,0,6.8,0.8,9.5,2.4c2.7,1.6,4.9,3.9,6.4,6.8c1.5,2.9,2.3,6.2,2.3,10   c0,3.8-0.8,7.1-2.3,10c-1.5,2.9-3.7,5.2-6.4,6.8C596.2,101.9,593.1,102.7,589.5,102.7z M589.5,101.2c3.3,0,6.1-0.7,8.6-2.2   c2.5-1.5,4.5-3.6,5.9-6.2c1.4-2.7,2.1-5.8,2.1-9.2s-0.7-6.6-2.1-9.2c-1.4-2.7-3.4-4.8-5.9-6.3c-2.5-1.5-5.4-2.2-8.6-2.2   c-3.3,0-6.1,0.8-8.7,2.3c-2.5,1.5-4.5,3.6-5.9,6.3c-1.4,2.6-2.1,5.7-2.1,9.1c0,3.4,0.7,6.5,2.1,9.1c1.4,2.6,3.4,4.7,5.9,6.2   C583.3,100.3,586.2,101.1,589.5,101.2z" fill="#202020"/>
	<path class="st4" d="M613.4,101.2v-1.5h3.2c0.9,0,1.6-0.2,1.9-0.6c0.3-0.4,0.5-1,0.5-1.9V69.6c0-0.9-0.2-1.5-0.5-1.9   c-0.3-0.4-1-0.6-1.9-0.6h-3.2v-1.5h7.2v6.5c1.1-2.2,2.8-4.1,5.2-5.7c2.4-1.6,5.3-2.4,8.6-2.4c4.5,0,8.1,1.3,10.9,3.9   c2.8,2.6,4.2,6.3,4.2,11.2v20.4h4.7v1.5h-11.9v-1.5h3.2c0.9,0,1.6-0.2,1.9-0.6c0.3-0.4,0.5-1,0.5-1.9v-18c0-4.4-1.3-7.8-3.8-10.1   c-2.5-2.3-5.8-3.4-9.7-3.4c-2.6,0-4.9,0.5-7,1.6c-2.1,1.1-3.8,2.6-5,4.5c-1.2,1.9-1.8,4.2-1.8,6.8v20.9h4.7v1.5H613.4z" fill="#202020"/>
	<path class="st4" d="M688.3,101.2v-1.5h4.4c1.6,0,2.4-0.8,2.4-2.5V45.3c0-1.7-0.8-2.5-2.4-2.5h-4.4v-1.5h24.7   c6,0,10.6,1.2,13.6,3.6c3,2.4,4.5,5.8,4.5,10.3c0,3.2-0.9,6-2.7,8.3c-1.8,2.3-4.6,3.9-8.4,4.8c4.5,1,8.1,3,10.6,5.8   c2.5,2.8,3.7,6.2,3.7,10.2c0,3.1-0.7,6-2,8.5c-1.4,2.6-3.6,4.6-6.7,6.1s-7.3,2.3-12.6,2.3H688.3z M696.6,67.5h16.3   c5.6,0,9.8-1.2,12.5-3.5c2.7-2.3,4-5.3,4-8.9c0-8.3-5.5-12.4-16.5-12.4h-16.3V67.5z M696.6,99.7h16.3c4.9,0,8.9-0.7,11.7-2.1   c2.9-1.4,4.9-3.3,6.1-5.6c1.2-2.3,1.8-4.9,1.8-7.8c0-4.5-1.7-8.1-5.2-11c-3.5-2.8-8.3-4.3-14.5-4.3h-16.3V99.7z" fill="#202020"/>
</g>
<g class="st6">
	<path class="st7" d="M543.5,102.7c-4,0-7-0.5-9.1-1.5c-2.1-1-3.5-2.5-4.2-4.4c-0.7-1.9-1.1-4.1-1.1-6.8V69.7c0-1-0.2-1.7-0.5-2   c-0.3-0.3-1-0.5-1.8-0.5h-7.1v-1.5h9.5V55c0-0.9-0.2-1.5-0.5-1.9c-0.3-0.4-1-0.6-1.9-0.6h-3.2v-1.5h7.2v14.6h10.4v1.5h-10.4V90   c0,2.4,0.3,4.4,0.8,6.1c0.6,1.7,1.7,2.9,3.6,3.7c1.8,0.8,4.6,1.3,8.4,1.4V102.7z" fill="#202020"/>
	<path class="st7" d="M547.9,101.2v-1.5h5.1c0.9,0,1.6-0.2,1.9-0.6c0.3-0.4,0.5-1,0.5-1.9V69.6c0-0.9-0.2-1.5-0.5-1.9   c-0.3-0.4-1-0.6-1.9-0.6h-3.2v-1.5h7.2v34h6.5v1.5H547.9z M556,53c-0.9,0-1.7-0.3-2.3-0.9s-0.9-1.4-0.9-2.3c0-0.9,0.3-1.6,0.9-2.1   c0.6-0.6,1.4-0.8,2.3-0.8c0.9,0,1.6,0.3,2.1,0.8c0.6,0.6,0.8,1.3,0.8,2.1c0,0.9-0.3,1.7-0.8,2.3C557.6,52.6,556.9,53,556,53z" fill="#202020"/>
	<path class="st7" d="M589.5,102.7c-3.5,0-6.7-0.8-9.4-2.4c-2.7-1.6-4.9-3.9-6.5-6.8c-1.6-2.9-2.4-6.2-2.4-10c0-3.8,0.8-7.1,2.3-10   c1.5-2.9,3.7-5.2,6.5-6.8c2.8-1.6,5.9-2.4,9.5-2.4c3.6,0,6.8,0.8,9.5,2.4c2.7,1.6,4.9,3.9,6.4,6.8c1.5,2.9,2.3,6.2,2.3,10   c0,3.8-0.8,7.1-2.3,10c-1.5,2.9-3.7,5.2-6.4,6.8C596.2,101.9,593.1,102.7,589.5,102.7z M589.5,101.2c3.3,0,6.1-0.7,8.6-2.2   c2.5-1.5,4.5-3.6,5.9-6.2c1.4-2.7,2.1-5.8,2.1-9.2s-0.7-6.6-2.1-9.2c-1.4-2.7-3.4-4.8-5.9-6.3c-2.5-1.5-5.4-2.2-8.6-2.2   c-3.3,0-6.1,0.8-8.7,2.3c-2.5,1.5-4.5,3.6-5.9,6.3c-1.4,2.6-2.1,5.7-2.1,9.1c0,3.4,0.7,6.5,2.1,9.1c1.4,2.6,3.4,4.7,5.9,6.2   C583.3,100.3,586.2,101.1,589.5,101.2z" fill="#202020"/>
	<path class="st7" d="M613.4,101.2v-1.5h3.2c0.9,0,1.6-0.2,1.9-0.6c0.3-0.4,0.5-1,0.5-1.9V69.6c0-0.9-0.2-1.5-0.5-1.9   c-0.3-0.4-1-0.6-1.9-0.6h-3.2v-1.5h7.2v6.5c1.1-2.2,2.8-4.1,5.2-5.7c2.4-1.6,5.3-2.4,8.6-2.4c4.5,0,8.1,1.3,10.9,3.9   c2.8,2.6,4.2,6.3,4.2,11.2v20.4h4.7v1.5h-11.9v-1.5h3.2c0.9,0,1.6-0.2,1.9-0.6c0.3-0.4,0.5-1,0.5-1.9v-18c0-4.4-1.3-7.8-3.8-10.1   c-2.5-2.3-5.8-3.4-9.7-3.4c-2.6,0-4.9,0.5-7,1.6c-2.1,1.1-3.8,2.6-5,4.5c-1.2,1.9-1.8,4.2-1.8,6.8v20.9h4.7v1.5H613.4z" fill="#202020"/>
	<path class="st7" d="M688.3,101.2v-1.5h4.4c1.6,0,2.4-0.8,2.4-2.5V45.3c0-1.7-0.8-2.5-2.4-2.5h-4.4v-1.5h24.7   c6,0,10.6,1.2,13.6,3.6c3,2.4,4.5,5.8,4.5,10.3c0,3.2-0.9,6-2.7,8.3c-1.8,2.3-4.6,3.9-8.4,4.8c4.5,1,8.1,3,10.6,5.8   c2.5,2.8,3.7,6.2,3.7,10.2c0,3.1-0.7,6-2,8.5c-1.4,2.6-3.6,4.6-6.7,6.1s-7.3,2.3-12.6,2.3H688.3z M696.6,67.5h16.3   c5.6,0,9.8-1.2,12.5-3.5c2.7-2.3,4-5.3,4-8.9c0-8.3-5.5-12.4-16.5-12.4h-16.3V67.5z M696.6,99.7h16.3c4.9,0,8.9-0.7,11.7-2.1   c2.9-1.4,4.9-3.3,6.1-5.6c1.2-2.3,1.8-4.9,1.8-7.8c0-4.5-1.7-8.1-5.2-11c-3.5-2.8-8.3-4.3-14.5-4.3h-16.3V99.7z" fill="#202020"/>
</g>
<g class="st6">
	<path class="st4" d="M770.7,98.2c-2.8,1.7-5.8,2.6-8.9,2.6c-3.1,0-6.1-0.9-8.8-2.5c-2.8-1.7-5.2-4.1-7.1-7.3   c-1.9-3.3-3-6.5-3.2-9.8c-0.2-3.3,0.3-6.3,1.7-9c1.4-2.8,3.5-5,6.4-6.8c2.8-1.7,5.6-2.6,8.4-2.7c2.8-0.1,5.5,0.5,7.9,1.8   c2.5,1.3,4.5,3.3,6.2,6l0.8,1.3l-27.7,16.7l0.9,1.7c1.6,2.8,3.6,5,6.1,6.6c2.5,1.6,5.3,2.4,8.2,2.5c2.9,0.1,5.7-0.7,8.4-2.2   c2.8-1.7,4.8-3.6,6.2-5.6c1.4-2,2.1-4,2.1-5.9l1.5,0.2c-0.1,2.2-0.9,4.4-2.4,6.6C775.8,94.4,773.6,96.4,770.7,98.2z M771.7,71.2   c-1.4-2.4-3.2-4.2-5.4-5.4c-2.2-1.2-4.6-1.7-7.2-1.7c-2.6,0.1-5.1,0.9-7.6,2.5c-3.5,2.2-5.8,5.2-6.8,8.9c-1,3.7-0.7,7.6,0.9,11.5   L771.7,71.2z" fill="#202020"/>
</g>
<g class="st6">
	<path class="st7" d="M770.7,98.2c-2.8,1.7-5.8,2.6-8.9,2.6c-3.1,0-6.1-0.9-8.8-2.5c-2.8-1.7-5.2-4.1-7.1-7.3   c-1.9-3.3-3-6.5-3.2-9.8c-0.2-3.3,0.3-6.3,1.7-9c1.4-2.8,3.5-5,6.4-6.8c2.8-1.7,5.6-2.6,8.4-2.7c2.8-0.1,5.5,0.5,7.9,1.8   c2.5,1.3,4.5,3.3,6.2,6l0.8,1.3l-27.7,16.7l0.9,1.7c1.6,2.8,3.6,5,6.1,6.6c2.5,1.6,5.3,2.4,8.2,2.5c2.9,0.1,5.7-0.7,8.4-2.2   c2.8-1.7,4.8-3.6,6.2-5.6c1.4-2,2.1-4,2.1-5.9l1.5,0.2c-0.1,2.2-0.9,4.4-2.4,6.6C775.8,94.4,773.6,96.4,770.7,98.2z M771.7,71.2   c-1.4-2.4-3.2-4.2-5.4-5.4c-2.2-1.2-4.6-1.7-7.2-1.7c-2.6,0.1-5.1,0.9-7.6,2.5c-3.5,2.2-5.8,5.2-6.8,8.9c-1,3.7-0.7,7.6,0.9,11.5   L771.7,71.2z" fill="#202020"/>
</g>
<g class="st6">
	<path class="st4" d="M813.7,98.6c-2.8,1.7-5.8,2.6-8.9,2.6c-3.1,0-6.1-0.9-8.8-2.5c-2.8-1.7-5.2-4.1-7.1-7.3   c-1.9-3.3-3-6.5-3.2-9.8c-0.2-3.3,0.3-6.3,1.7-9c1.4-2.8,3.5-5,6.4-6.8c2.8-1.7,5.6-2.6,8.4-2.7c2.8-0.1,5.5,0.5,7.9,1.8   c2.5,1.3,4.5,3.3,6.2,6l0.8,1.3l-27.7,16.7l0.9,1.7c1.6,2.8,3.6,5,6.1,6.6c2.5,1.6,5.3,2.4,8.2,2.5c2.9,0.1,5.7-0.7,8.4-2.2   c2.8-1.7,4.8-3.6,6.2-5.6c1.4-2,2.1-4,2.1-5.9l1.5,0.2c-0.1,2.2-0.9,4.4-2.4,6.6C818.8,94.8,816.6,96.8,813.7,98.6z M814.7,71.6   c-1.4-2.4-3.2-4.2-5.4-5.4c-2.2-1.2-4.6-1.7-7.2-1.7c-2.6,0.1-5.1,0.9-7.6,2.5c-3.5,2.2-5.8,5.2-6.8,8.9c-1,3.7-0.7,7.6,0.9,11.5   L814.7,71.6z" fill="#202020"/>
</g>
<g class="st6">
	<path class="st7" d="M813.7,98.6c-2.8,1.7-5.8,2.6-8.9,2.6c-3.1,0-6.1-0.9-8.8-2.5c-2.8-1.7-5.2-4.1-7.1-7.3   c-1.9-3.3-3-6.5-3.2-9.8c-0.2-3.3,0.3-6.3,1.7-9c1.4-2.8,3.5-5,6.4-6.8c2.8-1.7,5.6-2.6,8.4-2.7c2.8-0.1,5.5,0.5,7.9,1.8   c2.5,1.3,4.5,3.3,6.2,6l0.8,1.3l-27.7,16.7l0.9,1.7c1.6,2.8,3.6,5,6.1,6.6c2.5,1.6,5.3,2.4,8.2,2.5c2.9,0.1,5.7-0.7,8.4-2.2   c2.8-1.7,4.8-3.6,6.2-5.6c1.4-2,2.1-4,2.1-5.9l1.5,0.2c-0.1,2.2-0.9,4.4-2.4,6.6C818.8,94.8,816.6,96.8,813.7,98.6z M814.7,71.6   c-1.4-2.4-3.2-4.2-5.4-5.4c-2.2-1.2-4.6-1.7-7.2-1.7c-2.6,0.1-5.1,0.9-7.6,2.5c-3.5,2.2-5.8,5.2-6.8,8.9c-1,3.7-0.7,7.6,0.9,11.5   L814.7,71.6z" fill="#202020"/>
</g>
</svg>