<svg id="Layer_1" data-name="Layer 1" xmlns="http://www.w3.org/2000/svg" xmlns:xlink="http://www.w3.org/1999/xlink" viewBox="0 0 848.895 152.663"><defs><style>.cls-1,.cls-2,.cls-6{fill:none;}.cls-13,.cls-2,.cls-6,.cls-7{stroke:#202020;stroke-miterlimit:10;}.cls-2{stroke-width:4px;}.cls-3{fill:#ff9c00;}.cls-4{fill:url(#New_Pattern_2);}.cls-13,.cls-5,.cls-7{fill:#202020;}.cls-6{stroke-width:2.581px;}.cls-7{font-size:87.193px;}.cls-13,.cls-7{stroke-width:1.72px;font-family:GrandifloraOne-Regular, Grandiflora One;}.cls-8{letter-spacing:-0.03em;}.cls-9{letter-spacing:0.01em;}.cls-10{letter-spacing:0.015em;}.cls-11{letter-spacing:-0.02em;}.cls-12{letter-spacing:-0.04em;}.cls-13{font-size:87.193px;}</style><pattern id="New_Pattern_2" data-name="New Pattern 2" width="50" height="50" patternTransform="translate(-8.529 -32.27) scale(0.43)" patternUnits="userSpaceOnUse" viewBox="0 0 50 50"><rect class="cls-1" width="50" height="50"/><line class="cls-2" x1="49.5" y1="100.5" x2="100.5" y2="49.5"/><line class="cls-2" x1="-0.5" y1="100.5" x2="50.5" y2="49.5"/><line class="cls-2" x1="-50.5" y1="100.5" x2="0.5" y2="49.5"/><line class="cls-2" x1="49.5" y1="50.5" x2="100.5" y2="-0.5"/><line class="cls-2" x1="-0.5" y1="50.5" x2="50.5" y2="-0.5"/><line class="cls-2" x1="-50.5" y1="50.5" x2="0.5" y2="-0.5"/><line class="cls-2" x1="49.5" y1="0.5" x2="100.5" y2="-50.5"/><line class="cls-2" x1="-0.5" y1="0.5" x2="50.5" y2="-50.5"/><line class="cls-2" x1="-50.5" y1="0.5" x2="0.5" y2="-50.5"/></pattern></defs><title>Integration_bee_logo</title><rect class="cls-3" x="147.213" y="113.079" width="5.822" height="1.747" transform="translate(-108.132 55.519) rotate(-53.425)"/><path class="cls-3" d="M172.175,113.517l-.02,0h-.025l-.042,0-4.188-.483-.2,1.735,5.784.667.2-1.735-1.508-.174Z" transform="translate(-77.288 -111.094)"/><rect class="cls-3" x="140.275" y="122.43" width="5.822" height="1.746" transform="translate(-118.445 53.726) rotate(-53.425)"/><path class="cls-3" d="M159.033,112l-.024,0h0l-.013,0h-.005l-.014,0h0l-.014,0h0l-2.618-.3-.2,1.735,5.783.667.2-1.735L159.035,112Z" transform="translate(-77.288 -111.094)"/><path class="cls-3" d="M131.746,140.187l-1.4-1.04h-.006l0,0,0,0h0l0,0h0l0,0h0l0,0h0v0h0v0h0v0h0l0,0h0l0,0h0l0,0h0l0,0v0l0,0h0l0,0h0l0,0h0l0,.006h0l-.011.014h0l-.025.034h0l-.062.083,0,0-3.319,4.474,1.4,1.041Z" transform="translate(-77.288 -111.094)"/><path class="cls-3" d="M231.518,120.356l-3.561-.41h-.006l-.013,0H227.9l-2.165-.25-.2,1.735,5.783.667Z" transform="translate(-77.288 -111.094)"/><rect class="cls-3" x="119.461" y="150.482" width="5.822" height="1.747" transform="translate(-149.384 48.349) rotate(-53.426)"/><rect class="cls-3" x="243.942" y="145.329" width="1.747" height="5.822" transform="translate(-116.044 -1.544) rotate(-23.426)"/><rect class="cls-3" x="133.337" y="131.781" width="5.822" height="1.747" transform="translate(-128.758 51.936) rotate(-53.426)"/><rect class="cls-3" x="112.523" y="159.833" width="5.822" height="1.747" transform="translate(-159.698 46.555) rotate(-53.425)"/><path class="cls-3" d="M196.818,116.357H196.8l-.048-.006h0l-5.718-.659-.2,1.735,5.784.667.2-1.735Z" transform="translate(-77.288 -111.094)"/><path class="cls-3" d="M241.412,138.189l-.051-.118h0l-.025-.058,0,0,0-.013h0l0-.007h0l0-.006,0,0h0l0-.006v0l0-.006v0l-.036-.082h0l0,0,0-.006h0l0,0,0-.008,0-.007-1.434-3.309-1.6.694,2.314,5.342,1.6-.694s-.326-.751-.732-1.69Z" transform="translate(-77.288 -111.094)"/><rect class="cls-3" x="234.684" y="123.961" width="1.747" height="5.822" transform="translate(-108.312 -6.985) rotate(-23.427)"/><rect class="cls-3" x="253.2" y="166.696" width="1.747" height="5.822" transform="translate(-123.776 3.9) rotate(-23.427)"/><rect class="cls-3" x="248.571" y="156.012" width="1.747" height="5.822" transform="translate(-119.91 1.179) rotate(-23.427)"/><path class="cls-3" d="M184.5,114.937h0l-.045-.005h0l-.1-.011h0l-4.879-.562-.2,1.735,5.784.667.2-1.735-.752-.087Z" transform="translate(-77.288 -111.094)"/><path class="cls-3" d="M217.668,118.76l-.023,0h-.007l-3.47-.4h0l-.2,1.735,5.784.667.2-1.735Z" transform="translate(-77.288 -111.094)"/><path class="cls-3" d="M206.684,117.494h-.048l-4.035-.465-.2,1.735,5.784.667.2-1.735Z" transform="translate(-77.288 -111.094)"/><path class="cls-4" d="M135.548,253.037l-32.481-74.965,7.216-9.724a73.356,73.356,0,0,1,28.544-6.091c1.279,0,2.573.038,3.846.114,14.49.863,24.292,6.3,34.668,12.063,9.395,5.215,19.11,10.607,32.748,12.667a74.02,74.02,0,0,0,11,.822c11.732,0,24.128-2.8,36.866-8.309l7.438,17.166-48.682,65.611Z" transform="translate(-77.288 -111.094)"/><path class="cls-5" d="M138.828,163.547c1.253,0,2.521.038,3.769.112,14.2.846,23.873,6.217,34.118,11.9,9.5,5.271,19.313,10.72,33.182,12.815a75.252,75.252,0,0,0,11.193.836c11.543,0,23.706-2.659,36.191-7.909l6.631,15.305-47.793,64.415-79.683-9.184-31.888-73.6,6.56-8.842a71.935,71.935,0,0,1,27.72-5.854m0-2.58a74.694,74.694,0,0,0-29.372,6.331l-7.868,10.6,33.073,76.332,82.642,9.524,49.569-66.807-8.249-19.04c-14.8,6.592-27.283,8.722-37.533,8.722a72.173,72.173,0,0,1-10.808-.808c-28.235-4.264-39.381-23.066-67.532-24.742q-1.977-.119-3.922-.116Z" transform="translate(-77.288 -111.094)"/><path class="cls-6" d="M78.129,188.154c14.574-12.519,37.367-27.8,64.33-26.2,28.151,1.676,39.3,20.479,67.532,24.742,17.317,2.615,43.7.159,79.758-26.78" transform="translate(-77.288 -111.094)"/><text class="cls-7" transform="translate(247.676 101.169)">I<tspan class="cls-8" x="32.958" y="0">n</tspan><tspan class="cls-9" x="76.03" y="0">t</tspan><tspan class="cls-10" x="103.843" y="0">e</tspan><tspan class="cls-9" x="147.003" y="0">g</tspan><tspan class="cls-11" x="195.48" y="0">r</tspan><tspan class="cls-12" x="229.485" y="0">a</tspan><tspan x="270.204" y="0">tion B</tspan></text><text class="cls-13" transform="matrix(0.854, -0.52, 0.52, 0.854, 752.764, 107.342)">e</text><text class="cls-13" transform="matrix(0.854, -0.52, 0.52, 0.854, 795.776, 107.771)">e</text></svg>