<svg width="709" height="189" viewBox="0 0 709 189" fill="none" xmlns="http://www.w3.org/2000/svg">
<path fill-rule="evenodd" clip-rule="evenodd" d="M164.51 93.8881L141.805 151.489L69.7646 162.239L24.4346 105.225L35.9279 76.0663C39.0887 75.7287 42.514 75.5366 46.2168 75.5366C60.6243 75.5366 71.6392 80.5448 83.2939 85.8439C96.3862 91.7967 110.286 98.1165 130.709 98.1165C144.461 98.1165 155.717 96.2681 164.51 93.8881Z" fill="#FBC151"/>
<path d="M54.3447 41.486L121.299 31.4951L163.429 84.4838L138.604 147.463L71.6495 157.454L29.5199 104.466L54.3447 41.486Z" stroke="#242424" stroke-width="8.90736"/>
<path d="M3.96973 88.6476C3.96973 88.6476 15.6239 75.5367 46.216 75.5367C76.8081 75.5367 92.1041 98.1166 130.708 98.1166C169.313 98.1166 188.251 83.549 188.251 83.549" stroke="#242424" stroke-width="8.90736"/>
<path d="M681.686 18H708.686V27H691.586V43.65H705.176V52.65H691.586V72H708.686V81H681.686V18Z" fill="#242424"/>
<path d="M648.99 18H675.99V27H658.89V43.65H672.48V52.65H658.89V72H675.99V81H648.99V18Z" fill="#242424"/>
<path d="M612.604 18H627.544C632.644 18 636.364 19.2 638.704 21.6C641.044 23.94 642.214 27.57 642.214 32.49V35.01C642.214 38.25 641.674 40.89 640.594 42.93C639.574 44.97 637.984 46.44 635.824 47.34V47.52C640.744 49.2 643.204 53.58 643.204 60.66V66.06C643.204 70.92 641.914 74.64 639.334 77.22C636.814 79.74 633.094 81 628.174 81H612.604V18ZM626.374 43.65C628.354 43.65 629.824 43.14 630.784 42.12C631.804 41.1 632.314 39.39 632.314 36.99V33.48C632.314 31.2 631.894 29.55 631.054 28.53C630.274 27.51 629.014 27 627.274 27H622.504V43.65H626.374ZM628.174 72C629.914 72 631.204 71.55 632.044 70.65C632.884 69.69 633.304 68.07 633.304 65.79V60.3C633.304 57.42 632.794 55.44 631.774 54.36C630.814 53.22 629.194 52.65 626.914 52.65H622.504V72H628.174Z" fill="#242424"/>
<path d="M559.781 18H572.201L581.831 55.71H582.011V18H590.831V81H580.661L568.781 35.01H568.601V81H559.781V18Z" fill="#242424"/>
<path d="M538.056 81.9C533.196 81.9 529.476 80.52 526.896 77.76C524.316 75 523.026 71.1 523.026 66.06V32.94C523.026 27.9 524.316 24 526.896 21.24C529.476 18.48 533.196 17.1 538.056 17.1C542.916 17.1 546.636 18.48 549.216 21.24C551.796 24 553.086 27.9 553.086 32.94V66.06C553.086 71.1 551.796 75 549.216 77.76C546.636 80.52 542.916 81.9 538.056 81.9ZM538.056 72.9C541.476 72.9 543.186 70.83 543.186 66.69V32.31C543.186 28.17 541.476 26.1 538.056 26.1C534.636 26.1 532.926 28.17 532.926 32.31V66.69C532.926 70.83 534.636 72.9 538.056 72.9Z" fill="#242424"/>
<path d="M506.432 18H516.332V81H506.432V18Z" fill="#242424"/>
<path d="M481.388 27H471.038V18H501.638V27H491.288V81H481.388V27Z" fill="#242424"/>
<path d="M449.306 18H462.716L472.976 81H463.076L461.276 68.49V68.67H450.026L448.226 81H439.046L449.306 18ZM460.106 60.12L455.696 28.98H455.516L451.196 60.12H460.106Z" fill="#242424"/>
<path d="M405.357 18H420.027C425.127 18 428.847 19.2 431.187 21.6C433.527 23.94 434.697 27.57 434.697 32.49V36.36C434.697 42.9 432.537 47.04 428.217 48.78V48.96C430.617 49.68 432.297 51.15 433.257 53.37C434.277 55.59 434.787 58.56 434.787 62.28V73.35C434.787 75.15 434.847 76.62 434.967 77.76C435.087 78.84 435.387 79.92 435.867 81H425.787C425.427 79.98 425.187 79.02 425.067 78.12C424.947 77.22 424.887 75.6 424.887 73.26V61.74C424.887 58.86 424.407 56.85 423.447 55.71C422.547 54.57 420.957 54 418.677 54H415.257V81H405.357V18ZM418.857 45C420.837 45 422.307 44.49 423.267 43.47C424.287 42.45 424.797 40.74 424.797 38.34V33.48C424.797 31.2 424.377 29.55 423.537 28.53C422.757 27.51 421.497 27 419.757 27H415.257V45H418.857Z" fill="#242424"/>
<path d="M384.241 81.9C379.441 81.9 375.781 80.55 373.261 77.85C370.741 75.09 369.481 71.16 369.481 66.06V32.94C369.481 27.84 370.741 23.94 373.261 21.24C375.781 18.48 379.441 17.1 384.241 17.1C389.041 17.1 392.701 18.48 395.221 21.24C397.741 23.94 399.001 27.84 399.001 32.94V38.34H389.641V32.31C389.641 28.17 387.931 26.1 384.511 26.1C381.091 26.1 379.381 28.17 379.381 32.31V66.78C379.381 70.86 381.091 72.9 384.511 72.9C387.931 72.9 389.641 70.86 389.641 66.78V54.45H384.691V45.45H399.001V66.06C399.001 71.16 397.741 75.09 395.221 77.85C392.701 80.55 389.041 81.9 384.241 81.9Z" fill="#242424"/>
<path d="M337.506 18H364.506V27H347.406V43.65H360.996V52.65H347.406V72H364.506V81H337.506V18Z" fill="#242424"/>
<path d="M312.462 27H302.112V18H332.712V27H322.362V81H312.462V27Z" fill="#242424"/>
<path d="M266.314 18H278.734L288.364 55.71H288.544V18H297.364V81H287.194L275.314 35.01H275.134V81H266.314V18Z" fill="#242424"/>
<path d="M249 18H258.9V81H249V18Z" fill="#242424"/>
<path d="M448.381 99H461.791L472.051 162H462.151L460.351 149.49V149.67H449.101L447.301 162H438.121L448.381 99ZM459.181 141.12L454.771 109.98H454.591L450.271 141.12H459.181Z" fill="#FBC151"/>
<path d="M423.417 99H433.317V162H423.417V99Z" fill="#FBC151"/>
<path d="M387.118 99H401.788C406.888 99 410.608 100.2 412.948 102.6C415.288 104.94 416.458 108.57 416.458 113.49V117.36C416.458 123.9 414.298 128.04 409.978 129.78V129.96C412.378 130.68 414.058 132.15 415.018 134.37C416.038 136.59 416.548 139.56 416.548 143.28V154.35C416.548 156.15 416.608 157.62 416.728 158.76C416.848 159.84 417.148 160.92 417.628 162H407.548C407.188 160.98 406.948 160.02 406.828 159.12C406.708 158.22 406.648 156.6 406.648 154.26V142.74C406.648 139.86 406.168 137.85 405.208 136.71C404.308 135.57 402.718 135 400.438 135H397.018V162H387.118V99ZM400.618 126C402.598 126 404.068 125.49 405.028 124.47C406.048 123.45 406.558 121.74 406.558 119.34V114.48C406.558 112.2 406.138 110.55 405.298 109.53C404.518 108.51 403.258 108 401.518 108H397.018V126H400.618Z" fill="#FBC151"/>
<path d="M362.075 108H351.725V99H382.325V108H371.975V162H362.075V108Z" fill="#FBC151"/>
<path d="M333.719 162.9C328.919 162.9 325.289 161.55 322.829 158.85C320.369 156.09 319.139 152.16 319.139 147.06V143.46H328.499V147.78C328.499 151.86 330.209 153.9 333.629 153.9C335.309 153.9 336.569 153.42 337.409 152.46C338.309 151.44 338.759 149.82 338.759 147.6C338.759 144.96 338.159 142.65 336.959 140.67C335.759 138.63 333.539 136.2 330.299 133.38C326.219 129.78 323.369 126.54 321.749 123.66C320.129 120.72 319.319 117.42 319.319 113.76C319.319 108.78 320.579 104.94 323.099 102.24C325.619 99.48 329.279 98.1 334.079 98.1C338.819 98.1 342.389 99.48 344.789 102.24C347.249 104.94 348.479 108.84 348.479 113.94V116.55H339.119V113.31C339.119 111.15 338.699 109.59 337.859 108.63C337.019 107.61 335.789 107.1 334.169 107.1C330.869 107.1 329.219 109.11 329.219 113.13C329.219 115.41 329.819 117.54 331.019 119.52C332.279 121.5 334.529 123.9 337.769 126.72C341.909 130.32 344.759 133.59 346.319 136.53C347.879 139.47 348.659 142.92 348.659 146.88C348.659 152.04 347.369 156 344.789 158.76C342.269 161.52 338.579 162.9 333.719 162.9Z" fill="#FBC151"/>
<path d="M299.037 162.9C294.237 162.9 290.577 161.55 288.057 158.85C285.537 156.09 284.277 152.16 284.277 147.06V99H294.177V147.78C294.177 149.94 294.597 151.5 295.437 152.46C296.337 153.42 297.597 153.9 299.217 153.9C300.837 153.9 302.067 153.42 302.907 152.46C303.807 151.5 304.257 149.94 304.257 147.78V99H313.797V147.06C313.797 152.16 312.537 156.09 310.017 158.85C307.497 161.55 303.837 162.9 299.037 162.9Z" fill="#FBC151"/>
<path d="M256.34 99H269.75L280.01 162H270.11L268.31 149.49V149.67H257.06L255.26 162H246.08L256.34 99ZM267.14 141.12L262.73 109.98H262.55L258.23 141.12H267.14Z" fill="#FBC151"/>
</svg>
