<svg width="718" height="211" viewBox="0 0 718 211" fill="none" xmlns="http://www.w3.org/2000/svg">
<path d="M690.686 29H717.686V38H700.586V54.65H714.176V63.65H700.586V83H717.686V92H690.686V29Z" fill="#F2F1F0"/>
<path d="M657.99 29H684.99V38H667.89V54.65H681.48V63.65H667.89V83H684.99V92H657.99V29Z" fill="#F2F1F0"/>
<path d="M621.604 29H636.544C641.644 29 645.364 30.2 647.704 32.6C650.044 34.94 651.214 38.57 651.214 43.49V46.01C651.214 49.25 650.674 51.89 649.594 53.93C648.574 55.97 646.984 57.44 644.824 58.34V58.52C649.744 60.2 652.204 64.58 652.204 71.66V77.06C652.204 81.92 650.914 85.64 648.334 88.22C645.814 90.74 642.094 92 637.174 92H621.604V29ZM635.374 54.65C637.354 54.65 638.824 54.14 639.784 53.12C640.804 52.1 641.314 50.39 641.314 47.99V44.48C641.314 42.2 640.894 40.55 640.054 39.53C639.274 38.51 638.014 38 636.274 38H631.504V54.65H635.374ZM637.174 83C638.914 83 640.204 82.55 641.044 81.65C641.884 80.69 642.304 79.07 642.304 76.79V71.3C642.304 68.42 641.794 66.44 640.774 65.36C639.814 64.22 638.194 63.65 635.914 63.65H631.504V83H637.174Z" fill="#F2F1F0"/>
<path d="M568.781 29H581.201L590.831 66.71H591.011V29H599.831V92H589.661L577.781 46.01H577.601V92H568.781V29Z" fill="#F2F1F0"/>
<path d="M547.056 92.9001C542.196 92.9001 538.476 91.5201 535.896 88.7601C533.316 86.0001 532.026 82.1001 532.026 77.0601V43.9401C532.026 38.9001 533.316 35.0001 535.896 32.2401C538.476 29.4801 542.196 28.1001 547.056 28.1001C551.916 28.1001 555.636 29.4801 558.216 32.2401C560.796 35.0001 562.086 38.9001 562.086 43.9401V77.0601C562.086 82.1001 560.796 86.0001 558.216 88.7601C555.636 91.5201 551.916 92.9001 547.056 92.9001ZM547.056 83.9001C550.476 83.9001 552.186 81.8301 552.186 77.6901V43.3101C552.186 39.1701 550.476 37.1001 547.056 37.1001C543.636 37.1001 541.926 39.1701 541.926 43.3101V77.6901C541.926 81.8301 543.636 83.9001 547.056 83.9001Z" fill="#F2F1F0"/>
<path d="M515.432 29H525.332V92H515.432V29Z" fill="#F2F1F0"/>
<path d="M490.388 38H480.038V29H510.638V38H500.288V92H490.388V38Z" fill="#F2F1F0"/>
<path d="M458.306 29H471.716L481.976 92H472.076L470.276 79.49V79.67H459.026L457.226 92H448.046L458.306 29ZM469.106 71.12L464.696 39.98H464.516L460.196 71.12H469.106Z" fill="#F2F1F0"/>
<path d="M414.357 29H429.027C434.127 29 437.847 30.2 440.187 32.6C442.527 34.94 443.697 38.57 443.697 43.49V47.36C443.697 53.9 441.537 58.04 437.217 59.78V59.96C439.617 60.68 441.297 62.15 442.257 64.37C443.277 66.59 443.787 69.56 443.787 73.28V84.35C443.787 86.15 443.847 87.62 443.967 88.76C444.087 89.84 444.387 90.92 444.867 92H434.787C434.427 90.98 434.187 90.02 434.067 89.12C433.947 88.22 433.887 86.6 433.887 84.26V72.74C433.887 69.86 433.407 67.85 432.447 66.71C431.547 65.57 429.957 65 427.677 65H424.257V92H414.357V29ZM427.857 56C429.837 56 431.307 55.49 432.267 54.47C433.287 53.45 433.797 51.74 433.797 49.34V44.48C433.797 42.2 433.377 40.55 432.537 39.53C431.757 38.51 430.497 38 428.757 38H424.257V56H427.857Z" fill="#F2F1F0"/>
<path d="M393.241 92.9001C388.441 92.9001 384.781 91.5501 382.261 88.8501C379.741 86.0901 378.481 82.1601 378.481 77.0601V43.9401C378.481 38.8401 379.741 34.9401 382.261 32.2401C384.781 29.4801 388.441 28.1001 393.241 28.1001C398.041 28.1001 401.701 29.4801 404.221 32.2401C406.741 34.9401 408.001 38.8401 408.001 43.9401V49.3401H398.641V43.3101C398.641 39.1701 396.931 37.1001 393.511 37.1001C390.091 37.1001 388.381 39.1701 388.381 43.3101V77.7801C388.381 81.8601 390.091 83.9001 393.511 83.9001C396.931 83.9001 398.641 81.8601 398.641 77.7801V65.4501H393.691V56.4501H408.001V77.0601C408.001 82.1601 406.741 86.0901 404.221 88.8501C401.701 91.5501 398.041 92.9001 393.241 92.9001Z" fill="#F2F1F0"/>
<path d="M346.506 29H373.506V38H356.406V54.65H369.996V63.65H356.406V83H373.506V92H346.506V29Z" fill="#F2F1F0"/>
<path d="M321.462 38H311.112V29H341.712V38H331.362V92H321.462V38Z" fill="#F2F1F0"/>
<path d="M275.314 29H287.734L297.364 66.71H297.544V29H306.364V92H296.194L284.314 46.01H284.134V92H275.314V29Z" fill="#F2F1F0"/>
<path d="M258 29H267.9V92H258V29Z" fill="#F2F1F0"/>
<path d="M457.381 110H470.791L481.051 173H471.151L469.351 160.49V160.67H458.101L456.301 173H447.121L457.381 110ZM468.181 152.12L463.771 120.98H463.591L459.271 152.12H468.181Z" fill="#FBC151"/>
<path d="M432.417 110H442.317V173H432.417V110Z" fill="#FBC151"/>
<path d="M396.118 110H410.788C415.888 110 419.608 111.2 421.948 113.6C424.288 115.94 425.458 119.57 425.458 124.49V128.36C425.458 134.9 423.298 139.04 418.978 140.78V140.96C421.378 141.68 423.058 143.15 424.018 145.37C425.038 147.59 425.548 150.56 425.548 154.28V165.35C425.548 167.15 425.608 168.62 425.728 169.76C425.848 170.84 426.148 171.92 426.628 173H416.548C416.188 171.98 415.948 171.02 415.828 170.12C415.708 169.22 415.648 167.6 415.648 165.26V153.74C415.648 150.86 415.168 148.85 414.208 147.71C413.308 146.57 411.718 146 409.438 146H406.018V173H396.118V110ZM409.618 137C411.598 137 413.068 136.49 414.028 135.47C415.048 134.45 415.558 132.74 415.558 130.34V125.48C415.558 123.2 415.138 121.55 414.298 120.53C413.518 119.51 412.258 119 410.518 119H406.018V137H409.618Z" fill="#FBC151"/>
<path d="M371.075 119H360.725V110H391.325V119H380.975V173H371.075V119Z" fill="#FBC151"/>
<path d="M342.719 173.9C337.919 173.9 334.289 172.55 331.829 169.85C329.369 167.09 328.139 163.16 328.139 158.06V154.46H337.499V158.78C337.499 162.86 339.209 164.9 342.629 164.9C344.309 164.9 345.569 164.42 346.409 163.46C347.309 162.44 347.759 160.82 347.759 158.6C347.759 155.96 347.159 153.65 345.959 151.67C344.759 149.63 342.539 147.2 339.299 144.38C335.219 140.78 332.369 137.54 330.749 134.66C329.129 131.72 328.319 128.42 328.319 124.76C328.319 119.78 329.579 115.94 332.099 113.24C334.619 110.48 338.279 109.1 343.079 109.1C347.819 109.1 351.389 110.48 353.789 113.24C356.249 115.94 357.479 119.84 357.479 124.94V127.55H348.119V124.31C348.119 122.15 347.699 120.59 346.859 119.63C346.019 118.61 344.789 118.1 343.169 118.1C339.869 118.1 338.219 120.11 338.219 124.13C338.219 126.41 338.819 128.54 340.019 130.52C341.279 132.5 343.529 134.9 346.769 137.72C350.909 141.32 353.759 144.59 355.319 147.53C356.879 150.47 357.659 153.92 357.659 157.88C357.659 163.04 356.369 167 353.789 169.76C351.269 172.52 347.579 173.9 342.719 173.9Z" fill="#FBC151"/>
<path d="M308.037 173.9C303.237 173.9 299.577 172.55 297.057 169.85C294.537 167.09 293.277 163.16 293.277 158.06V110H303.177V158.78C303.177 160.94 303.597 162.5 304.437 163.46C305.337 164.42 306.597 164.9 308.217 164.9C309.837 164.9 311.067 164.42 311.907 163.46C312.807 162.5 313.257 160.94 313.257 158.78V110H322.797V158.06C322.797 163.16 321.537 167.09 319.017 169.85C316.497 172.55 312.837 173.9 308.037 173.9Z" fill="#FBC151"/>
<path d="M265.34 110H278.75L289.01 173H279.11L277.31 160.49V160.67H266.06L264.26 173H255.08L265.34 110ZM276.14 152.12L271.73 120.98H271.55L267.23 152.12H276.14Z" fill="#FBC151"/>
<rect width="211" height="211" rx="105.5" fill="#F2F1F0"/>
<path fill-rule="evenodd" clip-rule="evenodd" d="M159.864 105.006L141.714 151.053L84.1226 159.647L47.8848 114.068L57.0728 90.7587C59.5997 90.4888 62.338 90.3352 65.2981 90.3352C76.8158 90.3352 85.6214 94.3389 94.9384 98.5751C105.405 103.334 116.516 108.386 132.843 108.386C143.836 108.386 152.835 106.908 159.864 105.006Z" fill="#FBC151"/>
<path d="M71.7949 63.1143L125.32 55.1274L158.999 97.4878L139.154 147.835L85.6288 155.822L51.9494 113.462L71.7949 63.1143Z" stroke="#242424" stroke-width="7.12075"/>
<path d="M31.5244 100.816C31.5244 100.816 40.841 90.3352 65.297 90.3352C89.7531 90.3352 101.981 108.386 132.842 108.386C163.703 108.386 178.843 96.7404 178.843 96.7404" stroke="#242424" stroke-width="7.12075"/>
</svg>
