<svg id="Layer_1" data-name="Layer 1" xmlns="http://www.w3.org/2000/svg" viewBox="0 0 776.527 562.949"><defs><style>.cls-1{fill:#ffde5c;}.cls-2{fill:#ff9c00;}.cls-3,.cls-4{fill:none;stroke:#ffde5c;stroke-miterlimit:10;}.cls-3{stroke-width:11.231px;}.cls-4{stroke-width:9.717px;}</style></defs><title>hexagon-bee</title><path class="cls-1" d="M1184.064,483.5l153.9,258-153.9,258L898.09,987.479,764.735,741.5,898.09,495.52,1184.064,483.5m6.216-11.5L891.253,484.567,751.959,741.5,891.253,998.433,1190.28,1011l160.758-269.5L1190.28,472Z" transform="translate(-626.846 -460.028)"/><path class="cls-2" d="M828.04,1003.1l-125.4-231.3c14.276,1.234,28.718,1.858,43.073,1.858,110.458,0,205.912-36.142,290.128-68.03,40.439-15.312,78.635-29.774,114.325-38.575a424.327,424.327,0,0,1,96.571-12.163L1297.8,740.5l-164.3,275.435Z" transform="translate(-626.846 -460.028)"/><path class="cls-1" d="M1243.436,660.807l47.537,79.693-160.715,269.428L831.61,997.381,712.919,778.46c10.908.707,21.875,1.064,32.792,1.064,111.53,0,207.517-36.344,292.2-68.41,40.269-15.248,78.305-29.649,113.654-38.366a417.938,417.938,0,0,1,91.867-11.941M1250.05,649a428.133,428.133,0,0,0-101.29,12.36C1038.6,688.524,908.268,767.8,745.711,767.8a491.834,491.834,0,0,1-53.491-2.9l132.25,243.93,312.28,13.12L1304.63,740.5,1250.05,649Z" transform="translate(-626.846 -460.028)"/><path class="cls-1" d="M1130.258,472.072l99.457,166.734a439.441,439.441,0,0,0-83.763,12.166c-36.715,9.054-75.393,23.7-116.341,39.2-82.812,31.354-176.672,66.892-283.9,66.892-15.386,0-30.876-.743-46.131-2.21L692.342,741.5,831.61,484.619l298.648-12.547m6.492-12.012L824.47,473.18,679,741.5l13.22,24.39a491.609,491.609,0,0,0,53.491,2.9c162.542,0,292.9-79.272,403.049-106.435A428.133,428.133,0,0,1,1250.05,650l-113.3-189.94Z" transform="translate(-626.846 -460.028)"/><line class="cls-3" x1="508.654" y1="5.472" x2="560.654" y2="17.472"/><line class="cls-3" x1="667.654" y1="281.472" x2="717.654" y2="281.472"/><line class="cls-3" x1="508.654" y1="557.472" x2="561.654" y2="545.472"/><path class="cls-4" d="M628,753.54c219.07,53.58,385.21-58.75,520.76-92.18,67.39-16.62,150.79-19.56,253.24,10.62" transform="translate(-626.846 -460.028)"/><line class="cls-3" x1="202.654" y1="18.472" x2="268.654" y2="30.472"/><line class="cls-3" x1="60.154" y1="281.472" x2="132.154" y2="281.472"/><circle class="cls-2" cx="186.654" cy="361.472" r="4.636"/><path class="cls-1" d="M813.5,811A10.5,10.5,0,1,0,824,821.5,10.5,10.5,0,0,0,813.5,811Z" transform="translate(-626.846 -460.028)"/><circle class="cls-2" cx="200.154" cy="382.972" r="3"/><path class="cls-1" d="M827,840a3,3,0,1,0,3,3,3,3,0,0,0-3-3Z" transform="translate(-626.846 -460.028)"/><circle class="cls-1" cx="503.654" cy="264.472" r="10.636"/><path class="cls-1" d="M1130.5,719.729a4.771,4.771,0,1,1-4.771,4.771,4.776,4.776,0,0,1,4.771-4.771m0-11.729a16.5,16.5,0,1,0,16.5,16.5,16.5,16.5,0,0,0-16.5-16.5Z" transform="translate(-626.846 -460.028)"/><circle class="cls-2" cx="472.154" cy="281.972" r="1.136"/><path class="cls-1" d="M1099,735a7,7,0,1,0,7,7,7,7,0,0,0-7-7Z" transform="translate(-626.846 -460.028)"/><circle class="cls-2" cx="490.154" cy="302.972" r="3"/><path class="cls-1" d="M1117,760a3,3,0,1,0,3,3,3,3,0,0,0-3-3Z" transform="translate(-626.846 -460.028)"/></svg>