<svg width="113" height="113" viewBox="0 0 113 113" fill="none" xmlns="http://www.w3.org/2000/svg">
<path d="M54.25 8.87639L95.5513 32.7217C95.706 32.811 95.8013 32.9761 95.8013 33.1547V80.8453C95.8013 81.0239 95.706 81.189 95.5513 81.2783L54.25 105.124C54.0953 105.213 53.9047 105.213 53.75 105.124L12.4487 81.2783C12.294 81.189 12.1987 81.0239 12.1987 80.8453V33.1547C12.1987 32.9761 12.294 32.811 12.4487 32.7217L53.75 8.87639C53.9047 8.78707 54.0953 8.78707 54.25 8.87639Z" stroke="#4D4D4D" stroke-width="3"/>
<path d="M17.1122 55.5992C16.2373 54.833 16.2034 53.484 17.0388 52.6749V52.6749C17.7632 51.9732 18.8929 51.9246 19.6644 52.5742C22.9453 55.337 31.449 62.6057 36.8107 68.1665C41.9705 73.5181 48.6822 81.9154 51.2733 85.206C51.8965 85.9974 51.8123 87.1247 51.0888 87.8255V87.8255C50.2529 88.6351 48.9052 88.5575 48.1687 87.6567C45.4186 84.293 39.0563 76.6147 34.2272 71.5804C28.8828 66.0088 20.5949 58.6493 17.1122 55.5992Z" fill="#4D4D4D"/>
<path d="M94.5099 28.6203C95.3232 27.7632 95.1999 26.3859 94.2459 25.6888V25.6888C93.459 25.1138 92.3726 25.2057 91.7028 25.9137C87.7845 30.0553 74.9445 43.8124 67.5 54C60.0696 64.1683 51.1708 80.1467 48.483 85.0562C48.0157 85.9097 48.2608 86.9678 49.0465 87.5418V87.5418C50.0022 88.2402 51.3564 87.9343 51.926 86.8967C54.8875 81.5026 63.4346 66.2298 70.5 56.5C77.7984 46.4493 90.1893 33.1737 94.5099 28.6203Z" fill="#4D4D4D"/>
</svg>
