<svg width="112" height="112" viewBox="0 0 112 112" fill="none" xmlns="http://www.w3.org/2000/svg">
<path d="M56.28 2.10156L102.537 28.8083C102.711 28.9083 102.817 29.0932 102.817 29.2933V82.7067C102.817 82.9068 102.711 83.0917 102.537 83.1917L56.28 109.898C56.1067 109.998 55.8933 109.998 55.72 109.898L9.46258 83.1917C9.28931 83.0917 9.18258 82.9068 9.18258 82.7067V29.2933C9.18258 29.0932 9.28932 28.9083 9.46258 28.8083L55.72 2.10156C55.8933 2.00152 56.1067 2.00152 56.28 2.10156Z" stroke="#4D4D4D" stroke-width="3.36"/>
<path d="M23.52 52.6399L50.4 80.6399L95.2 20.1599H105.28L50.3999 91.8399L13.4399 52.6399H23.52Z" fill="#4D4D4D"/>
</svg>
