<svg width="93" height="86" viewBox="0 0 93 86" fill="none" xmlns="http://www.w3.org/2000/svg">
<rect x="7.50806" y="42.3372" width="61.3789" height="42.746" rx="5.48026" fill="#242424"/>
<path d="M75.4629 57.2213C75.4629 56.4827 75.8348 55.7938 76.4523 55.3886L89.6049 46.7571C91.0627 45.8005 92.9997 46.8462 92.9997 48.5898V81.1281C92.9997 82.8499 91.1058 83.8995 89.6458 82.987L76.4932 74.7666C75.8523 74.366 75.4629 73.6635 75.4629 72.9077V57.2213Z" fill="#242424"/>
<path fill-rule="evenodd" clip-rule="evenodd" d="M53.9941 38.3618C64.5875 38.3618 73.175 29.7742 73.175 19.1809C73.175 8.58758 64.5875 0 53.9941 0C43.4008 0 34.8132 8.58758 34.8132 19.1809C34.8132 29.7742 43.4008 38.3618 53.9941 38.3618ZM58.2602 13.4779C57.3474 12.3784 55.9173 11.8494 54.5087 12.0901L51.5845 12.59C50.1759 12.8308 49.0027 13.8047 48.5069 15.145L47.4777 17.9274C46.9819 19.2677 47.2388 20.7707 48.1516 21.8702L50.0466 24.1527C50.9594 25.2522 52.3895 25.7812 53.7982 25.5404L56.7223 25.0406C58.131 24.7998 59.3041 23.8258 59.7999 22.4855L60.8292 19.7032C61.3249 18.3629 61.068 16.8599 60.1552 15.7604L58.2602 13.4779Z" fill="#242424"/>
<path fill-rule="evenodd" clip-rule="evenodd" d="M13.7006 37.9004C21.2673 37.9004 27.4013 31.7665 27.4013 24.1998C27.4013 16.6331 21.2673 10.4991 13.7006 10.4991C6.13399 10.4991 0 16.6331 0 24.1998C0 31.7665 6.13399 37.9004 13.7006 37.9004ZM16.7093 20.2401C16.1099 19.5182 15.171 19.1709 14.2462 19.3291L11.7386 19.7578C10.8137 19.916 10.0435 20.5555 9.71806 21.4355L8.83558 23.8215C8.51011 24.7015 8.67884 25.6883 9.2782 26.4101L10.9033 28.3674C11.5027 29.0892 12.4416 29.4365 13.3664 29.2784L15.874 28.8496C16.7989 28.6915 17.5691 28.052 17.8945 27.172L18.777 24.7859C19.1025 23.906 18.9338 22.9192 18.3344 22.1973L16.7093 20.2401Z" fill="#242424"/>
</svg>
