<svg width="113" height="113" viewBox="0 0 113 113" fill="none" xmlns="http://www.w3.org/2000/svg">
<path d="M57.25 8.87639L98.5513 32.7217C98.706 32.811 98.8013 32.9761 98.8013 33.1547V80.8453C98.8013 81.0239 98.706 81.189 98.5513 81.2783L57.25 105.124C57.0953 105.213 56.9047 105.213 56.75 105.124L15.4487 81.2783C15.294 81.189 15.1987 81.0239 15.1987 80.8453V33.1547C15.1987 32.9761 15.294 32.811 15.4487 32.7217L56.75 8.87639C56.9047 8.78707 57.0953 8.78707 57.25 8.87639Z" stroke="#4D4D4D" stroke-width="3"/>
<rect x="34.5293" y="37.4055" width="3.93713" height="57.9069" rx="1.96856" transform="rotate(-44.0859 34.5293 37.4055)" fill="#4D4D4D"/>
<rect width="3.93713" height="57.9069" rx="1.96856" transform="matrix(-0.718298 -0.695736 -0.695736 0.718298 77.8506 36.7815)" fill="#4D4D4D"/>
</svg>
