<svg width="113" height="113" viewBox="0 0 113 113" fill="none" xmlns="http://www.w3.org/2000/svg">
<path d="M57.28 3.10156L103.537 29.8083C103.711 29.9083 103.817 30.0932 103.817 30.2933V83.7067C103.817 83.9068 103.711 84.0917 103.537 84.1917L57.28 110.898C57.1067 110.998 56.8933 110.998 56.72 110.898L10.4626 84.1917C10.2893 84.0917 10.1826 83.9068 10.1826 83.7067V30.2933C10.1826 30.0932 10.2893 29.9083 10.4626 29.8083L56.72 3.10156C56.8933 3.00152 57.1067 3.00152 57.28 3.10156Z" stroke="#4D4D4D" stroke-width="3.36"/>
<path d="M29 33H38L85 80H76L29 33Z" fill="#4D4D4D"/>
<path d="M85 33H76L29 80H38L85 33Z" fill="#4D4D4D"/>
</svg>
