<svg width="32" height="32" viewBox="0 0 32 32" fill="none" xmlns="http://www.w3.org/2000/svg">
<g clip-path="url(#clip0_326_389)">
<path fill-rule="evenodd" clip-rule="evenodd" d="M26.8809 1.39611C27.443 0.625054 28.5237 0.455652 29.2948 1.01774L30.5831 1.95691C31.3541 2.51901 31.5235 3.59974 30.9614 4.3708L30.7528 4.65694C30.4718 5.04247 29.9314 5.12717 29.5459 4.84613L26.8615 2.8892C26.4759 2.60815 26.3912 2.06779 26.6723 1.68226L26.8809 1.39611ZM26.3667 3.56898C25.9811 3.28793 25.4408 3.37263 25.1597 3.75816L21.8781 8.25973L15.796 4.74823C14.9942 4.28529 14.0063 4.28529 13.2045 4.74823L3.23866 10.502C2.43682 10.9649 1.94287 11.8205 1.94287 12.7463V24.2539C1.94287 25.1797 2.43682 26.0353 3.23866 26.4982L8.5657 29.5738L9.06491 29.6986C9.16515 29.7237 9.26762 29.7277 9.36656 29.7123C9.72123 29.9466 14.4782 26.4085 14.4782 26.4085L10.9443 23.8323C10.9443 23.8323 9.76292 27.2979 9.41792 28.9111L3.73866 25.6322C3.24622 25.3479 2.94287 24.8225 2.94287 24.2539V12.7463C2.94287 12.1777 3.24622 11.6523 3.73866 11.368L13.7045 5.61425C14.1969 5.32994 14.8036 5.32994 15.296 5.61425L21.2857 9.07239L11.5519 22.4249C11.2709 22.8104 11.3556 23.3507 11.7411 23.6318L14.4256 25.5887C14.8111 25.8698 15.3515 25.7851 15.6325 25.3995L25.64 11.6716C25.9048 11.9609 26.0576 12.3428 26.0576 12.7463V24.2539C26.0576 24.8225 25.7543 25.3479 25.2618 25.6322L15.296 31.386C15.2748 31.3982 15.2534 31.4099 15.2318 31.4211L15.8372 32.2282L25.7618 26.4982C26.5637 26.0353 27.0576 25.1797 27.0576 24.2539V12.7463C27.0576 12.0204 26.754 11.3377 26.2363 10.8536L29.2403 6.73285C29.5213 6.34732 29.4366 5.80695 29.0511 5.52591L26.3667 3.56898Z" fill="#4D4D4D"/>
</g>
<defs>
<clipPath id="clip0_326_389">
<rect width="32" height="32" fill="white"/>
</clipPath>
</defs>
</svg>
