<svg width="104" height="104" viewBox="0 0 104 104" fill="none" xmlns="http://www.w3.org/2000/svg">
<path d="M98.2597 0H5.74031C4.21789 0 2.75782 0.604781 1.6813 1.6813C0.604781 2.75782 0 4.21789 0 5.74031L0 98.2597C0 99.7821 0.604781 101.242 1.6813 102.319C2.75782 103.395 4.21789 104 5.74031 104H55.5547V63.7812H42.0469V48.0391H55.5547V36.4609C55.5547 23.0283 63.7589 15.7137 75.7453 15.7137C81.4836 15.7137 86.4175 16.1403 87.8516 16.3231V30.3611H79.5844C73.0641 30.3611 71.8006 33.4587 71.8006 38.0067V48.0391H87.3884L85.3572 63.7812H71.8006V104H98.2556C99.0098 104.001 99.7567 103.852 100.454 103.564C101.151 103.276 101.784 102.853 102.317 102.32C102.851 101.787 103.274 101.154 103.563 100.457C103.851 99.7606 104 99.0139 104 98.2597V5.74031C104 4.21789 103.395 2.75782 102.319 1.6813C101.242 0.604781 99.7821 0 98.2597 0Z" fill="#FBC151"/>
</svg>
