<svg width="247" height="155" viewBox="0 0 247 155" fill="none" xmlns="http://www.w3.org/2000/svg">
<g clip-path="url(#clip0_340_462)">
<path fill-rule="evenodd" clip-rule="evenodd" d="M131.058 31.6221L137.984 27.6229V9.20763L122.036 0L106.088 9.20763V27.6229L113.145 31.6968L83.6712 78.2648L46.0733 73.661L14.1108 55.8357L20.0195 50.338L18.492 36.6113L8.48221 30.7768L0 38.6691L1.52752 52.3958L7.2701 55.743L22.287 115.095C22.287 115.095 82.7879 130.516 122.036 130.441C160.69 130.368 220.251 115.095 220.251 115.095L239.986 58.6125L245.292 55.7967L247.366 42.1418L239.205 33.9178L228.97 39.3487L226.897 53.0036L231.149 57.2887L199.534 73.661L161.169 78.2648L131.058 31.6221ZM24.5889 125.838C24.5889 125.838 82.7528 140.881 122.036 140.416C160.216 139.965 217.182 125.838 217.182 125.838C217.182 125.838 214.113 135.045 211.811 138.114C209.509 141.184 159.034 154.773 122.036 154.995C83.5579 155.226 33.0292 141.951 30.7273 139.649C29.1927 138.114 24.5889 125.838 24.5889 125.838Z" fill="#FBC151"/>
</g>
<defs>
<clipPath id="clip0_340_462">
<rect width="247" height="155" fill="white"/>
</clipPath>
</defs>
</svg>
