<svg width="81" height="64" viewBox="0 0 81 64" fill="none" xmlns="http://www.w3.org/2000/svg">
<path fill-rule="evenodd" clip-rule="evenodd" d="M38.6415 6.77979L31.0516 2.74416C30.5601 2.48283 30.0555 2.27114 29.5434 2.10732C20.5338 -1.35005 10.1525 2.37665 5.50641 11.1147C0.480628 20.5668 -3.41312 29.3064 6.039 34.3321C12.4693 37.7512 23.4195 38.5706 31.3463 35.7692L42.9004 41.9126C45.0105 50.0507 51.8132 58.6706 58.2434 62.0896C67.6955 67.1154 72.7636 59.0002 77.7893 49.5481C82.8151 40.096 79.2269 28.3593 69.7748 23.3335C69.5272 23.2019 69.2781 23.0762 69.0277 22.9564C68.8664 22.8573 68.701 22.7627 68.5316 22.6726L63.0451 19.7554L57.8596 29.5078C57.1685 30.8077 55.5544 31.3012 54.2544 30.61L34.5583 20.1374C33.2584 19.4462 32.7649 17.8321 33.4561 16.5322L38.6415 6.77979ZM34.339 17.0017L39.2898 7.6907L61.9274 19.7274L56.9767 29.0383C56.5448 29.8506 55.5362 30.159 54.7239 29.7271L35.0278 19.2545C34.2155 18.8226 33.9071 17.814 34.339 17.0017ZM65.6995 35.1483C64.1681 34.3341 63.8918 31.8589 64.706 30.3276C65.5203 28.7962 67.4218 28.2149 68.9531 29.0291C70.4844 29.8434 71.0658 31.7448 70.2516 33.2762C69.4373 34.8075 67.2308 35.9625 65.6995 35.1483ZM58.606 41.801C59.4202 40.2697 61.6267 39.1147 63.1581 39.9289C64.6894 40.7431 64.9657 43.2183 64.1515 44.7496C63.3373 46.281 61.4358 46.8623 59.9044 46.0481C58.3731 45.2339 57.7917 43.3324 58.606 41.801ZM62.0382 36.2677C61.224 37.7991 58.7488 38.0754 57.2175 37.2612C55.6861 36.4469 55.1048 34.5455 55.919 33.0141C56.7332 31.4828 58.6347 30.9014 60.1661 31.7157C61.6974 32.5299 62.8524 34.7364 62.0382 36.2677ZM68.6912 43.3617C67.1598 42.5475 66.0048 40.341 66.8191 38.8096C67.6333 37.2783 70.1084 37.002 71.6398 37.8162C73.1711 38.6304 73.7525 40.5319 72.9382 42.0633C72.124 43.5946 70.2225 44.1759 68.6912 43.3617ZM26.0894 7.46415C25.0332 6.90261 23.7219 7.30353 23.1604 8.35964L21.5335 11.4193L18.4738 9.79242C17.4177 9.23088 16.1063 9.6318 15.5448 10.6879L14.3247 12.9826C13.7631 14.0387 14.164 15.3501 15.2201 15.9116L18.2799 17.5385L16.6531 20.598C16.0916 21.6541 16.4925 22.9655 17.5486 23.527L19.8433 24.7471C20.8994 25.3086 22.2107 24.9077 22.7723 23.8516L24.399 20.7921L27.4585 22.4189C28.5146 22.9804 29.826 22.5795 30.3875 21.5234L31.6076 19.2287C32.1691 18.1726 31.7682 16.8612 30.7121 16.2997L27.6527 14.6729L29.2795 11.6133C29.8411 10.5572 29.4401 9.2458 28.384 8.68426L26.0894 7.46415Z" fill="#FBC151"/>
</svg>
