<svg width="28" height="28" viewBox="0 0 28 28" fill="none" xmlns="http://www.w3.org/2000/svg">
<path d="M16.4692 3.77109L23.4637 11.1924L20.5339 20.9605L10.6096 23.3072L3.61513 15.8859L6.54491 6.11786L16.4692 3.77109Z" stroke="#F2F1F0" stroke-width="1.17031"/>
<path d="M12.6043 15.7582C12.6043 15.3624 12.6631 14.9879 12.7808 14.6348C12.9092 14.271 13.1393 13.8538 13.4709 13.383C13.8561 12.8373 14.1182 12.3666 14.2573 11.9707C14.3964 11.5748 14.466 11.1575 14.466 10.7189C14.466 10.3337 14.3911 10.0555 14.2413 9.88432C14.0915 9.70244 13.8722 9.61149 13.5833 9.61149C13.2944 9.61149 13.0751 9.70244 12.9253 9.88432C12.7755 10.0555 12.7006 10.3337 12.7006 10.7189V11.9386H11.0315V10.8312C11.0315 9.92177 11.2508 9.22632 11.6895 8.74485C12.1282 8.25268 12.7701 8.00659 13.6154 8.00659C14.4713 8.00659 15.1186 8.25268 15.5573 8.74485C16.0067 9.22632 16.2314 9.92177 16.2314 10.8312C16.2314 11.3234 16.1404 11.7995 15.9585 12.2596C15.7873 12.7089 15.4878 13.2172 15.0598 13.7842C14.7174 14.2443 14.4767 14.6295 14.3376 14.9398C14.2092 15.2393 14.145 15.5336 14.145 15.8224V16.4323H12.6043V15.7582ZM12.524 17.7002H14.2252V19.4014H12.524V17.7002Z" fill="white"/>
</svg>
