<svg width="104" height="104" viewBox="0 0 104 104" fill="none" xmlns="http://www.w3.org/2000/svg">
<path fill-rule="evenodd" clip-rule="evenodd" d="M12.584 0H91.416C98.3424 0 104 5.69591 104 12.646V91.354C104 98.3145 98.332 104 91.416 104H12.584C5.6576 104 0 98.3041 0 91.354V12.646C0 5.68546 5.668 0 12.584 0ZM11.232 42.8186H21.6216C20.54 45.9853 19.9472 49.3715 19.9472 52.904C19.9472 70.3262 34.2992 84.4458 52 84.4458C69.7008 84.4458 84.0528 70.3262 84.0528 52.904C84.0528 49.382 83.46 45.9853 82.3784 42.8186H92.768V86.6092C92.768 89.7132 90.2408 92.2424 87.1624 92.2424H16.4112C13.5616 92.2424 11.232 89.9013 11.232 87.0377V42.8186ZM75.6496 10.3049H87.724C90.4488 10.3049 92.6848 12.5519 92.6848 15.2901V26.567C92.6848 29.3052 90.4488 31.5522 87.724 31.5522H75.6496C72.9248 31.5522 70.6888 29.3052 70.6888 26.567V15.2901C70.6888 12.5519 72.9248 10.3049 75.6496 10.3049ZM52.0312 30.6848C63.5232 30.6848 72.8416 39.8609 72.8416 51.1691C72.8416 62.4773 63.5232 71.6535 52.0312 71.6535C40.5392 71.6535 31.2208 62.4773 31.2208 51.1691C31.2208 39.8609 40.5392 30.6848 52.0312 30.6848Z" fill="#FBC151"/>
</svg>
