<svg width="42" height="43" viewBox="0 0 42 43" fill="none" xmlns="http://www.w3.org/2000/svg">
<path fill-rule="evenodd" clip-rule="evenodd" d="M2.33362 12.8257L24.7014 1.95364L23.8585 0.21936L1.49067 11.0914C0.500216 11.5728 -0.0546888 12.6492 0.127692 13.7352L4.12639 37.5467C4.30877 38.6327 5.18484 39.4688 6.27821 39.6003L30.9704 42.5694L31.2006 40.6549L6.50842 37.6858C6.26433 37.6564 6.06876 37.4698 6.02804 37.2273L2.02935 13.4159C1.98863 13.1734 2.11251 12.9331 2.33362 12.8257ZM27.2481 13.8903L36.8813 21.7174H11.7123V23.6457H36.8813L27.2481 31.4727L28.464 32.9693L40.2049 23.4298L41.1259 22.6815L40.2049 21.9332L28.464 12.3938L27.2481 13.8903Z" fill="#FBC151"/>
</svg>
