<svg width="69" height="68" viewBox="0 0 69 68" fill="none" xmlns="http://www.w3.org/2000/svg">
<path fill-rule="evenodd" clip-rule="evenodd" d="M59.4828 33.7849L51.3108 54.5169L25.3814 58.3861L9.06592 37.8652L13.2027 27.3704C14.3404 27.2488 15.5733 27.1797 16.906 27.1797C22.0917 27.1797 26.0562 28.9823 30.2511 30.8896C34.9633 33.0321 39.9662 35.3068 47.3172 35.3068C52.2665 35.3068 56.3178 34.6415 59.4828 33.7849Z" fill="#FBC151"/>
<path d="M19.7919 14.8718L43.9564 11.266L59.1614 30.3902L50.2019 53.1202L26.0374 56.726L10.8324 37.6018L19.7919 14.8718Z" stroke="#001D37" stroke-width="3.09071"/>
<path d="M1.70068 31.8987C1.70068 31.8987 5.89532 27.1797 16.9062 27.1797C27.9172 27.1797 33.4226 35.3068 47.3174 35.3068C61.2121 35.3068 68.0284 30.0635 68.0284 30.0635" stroke="#001D37" stroke-width="3.09071"/>
</svg>
