<svg width="47" height="47" viewBox="0 0 47 47" fill="none" xmlns="http://www.w3.org/2000/svg">
<rect width="47" height="47" rx="23.5" fill="#F2F1F0"/>
<path fill-rule="evenodd" clip-rule="evenodd" d="M15.2412 23.1224L19.5364 10.2668L27.2188 10.2668L31.514 23.1224L27.3586 31.1932L19.3967 31.1932L15.2412 23.1224ZM18.624 9L28.1312 9L32.8848 23.2275L31.0825 26.728H31.9633L33.8786 23.0715L35.0008 23.6594L29.5062 34.1489L29.3284 34.4884H28.9451H24.0843V36.2176H27.9464V37.4844H18.9553V36.2176H22.8174V34.4884H17.4566H17.0566L16.8847 34.1273L11.8896 23.6378L13.0334 23.0931L14.7643 26.728H15.6728L13.8704 23.2275L18.624 9ZM16.325 27.9949H15.3676L17.8565 33.2216H28.5619L31.2997 27.9949H30.4436V27.9688L28.1312 32.46L18.624 32.46L16.325 27.9949Z" fill="#242424"/>
</svg>
