<svg width="292" height="292" viewBox="0 0 292 292" fill="none" xmlns="http://www.w3.org/2000/svg">
<path d="M90.4479 280.739C91.5597 282.138 93.3338 282.837 95.1014 282.573L234.389 261.766C236.156 261.502 237.648 260.315 238.303 258.653L289.943 127.523C290.597 125.862 290.316 123.978 289.206 122.58L201.552 12.2614C200.44 10.8622 198.666 10.1627 196.899 10.4267L57.6109 31.2345C55.8439 31.4984 54.352 32.6851 53.6973 34.3475L2.057 165.477C1.40286 167.138 1.68395 169.022 2.7945 170.42L90.4479 280.739Z" fill="#4D4D4D"/>
<path d="M97.8056 269L227.806 249.561L276 127.061L194.194 24L64.1944 43.4394L16 165.939L97.8056 269Z" fill="#C8C8C8"/>
</svg>
