<svg width="292" height="292" viewBox="0 0 292 292" fill="none" xmlns="http://www.w3.org/2000/svg">
<path d="M90.4479 280.739C91.5597 282.138 93.3338 282.837 95.1014 282.573L234.389 261.766C236.156 261.502 237.648 260.315 238.303 258.653L289.943 127.523C290.597 125.862 290.316 123.978 289.206 122.58L201.552 12.2614C200.44 10.8622 198.666 10.1627 196.899 10.4267L57.6109 31.2345C55.8439 31.4984 54.352 32.6851 53.6973 34.3475L2.057 165.477C1.40286 167.138 1.68395 169.022 2.7945 170.42L90.4479 280.739Z" fill="#4D4D4D"/>
<path d="M97.8056 269L227.806 249.561L276 127.061L194.194 24L64.1944 43.4394L16 165.939L97.8056 269Z" fill="#C8C8C8"/>
<path d="M108.297 124.607L99.094 117.014C98.5607 116.574 98.6241 115.739 99.2177 115.384L156.281 81.3025C156.594 81.1159 156.983 81.1138 157.298 81.297L193.982 102.674C194.515 102.985 194.643 103.699 194.25 104.175L128.498 183.741C127.869 184.502 128.605 185.617 129.552 185.337L197.217 165.378C197.858 165.189 198.5 165.67 198.5 166.338V190.846C198.5 191.337 198.144 191.755 197.66 191.833L99.1601 207.812C98.5519 207.91 98 207.441 98 206.825V192.053C98 191.823 98.0796 191.6 98.2252 191.421L160.637 114.945C160.862 114.67 160.923 114.295 160.798 113.962L157.163 104.268C156.96 103.726 156.341 103.469 155.814 103.708L109.346 124.747C108.998 124.904 108.591 124.85 108.297 124.607Z" fill="#4D4D4D"/>
</svg>
