<svg width="94" height="84" viewBox="0 0 94 84" fill="none" xmlns="http://www.w3.org/2000/svg">
<path d="M6.46107 36.1617C31.6988 24.3084 48.5239 16.4933 56.9364 12.7177C80.9839 1.93636 85.9747 0.0638868 89.2342 0.000562376C89.951 -0.0119458 91.547 0.179093 92.5884 1.08763C93.454 1.85324 93.6974 2.88865 93.8192 3.61489C93.9274 4.34113 94.0762 5.99633 93.9544 7.2884C92.656 22.0466 87.0161 57.86 84.1488 74.3901C82.9451 81.3845 80.5511 83.7294 78.2384 83.9584C73.2071 84.4571 69.393 80.3767 64.524 76.9363C56.9094 71.5507 52.6084 68.1995 45.2103 62.9452C36.6624 56.8727 42.2077 53.5346 47.0767 48.0805C48.3481 46.6528 70.502 24.9312 70.9213 22.961C70.9754 22.7145 71.0295 21.7958 70.5156 21.3116C70.0151 20.826 69.2713 20.9922 68.7303 21.1235C67.9593 21.3101 55.8003 29.9842 32.2127 47.1443C28.7638 49.7022 25.6395 50.949 22.8263 50.8834C19.7426 50.8119 13.7916 48.9992 9.36895 47.4505C3.95894 45.5503 -0.35554 44.5455 0.0231604 41.3183C0.212511 39.6383 2.36299 37.9189 6.46107 36.1617Z" fill="#FBC151"/>
</svg>
