<svg width="257" height="180" viewBox="0 0 257 180" fill="none" xmlns="http://www.w3.org/2000/svg">
<path fill-rule="evenodd" clip-rule="evenodd" d="M228.172 5.51149C239.215 8.49959 247.841 17.1256 250.829 28.1683C259.284 62.2027 257.331 115.955 250.993 151.303C248.005 162.346 239.379 170.972 228.337 173.96C208.471 179.378 128.515 179.378 128.515 179.378C128.515 179.378 48.56 179.378 28.6943 173.96C17.6517 170.972 9.02562 162.346 6.03753 151.303C-2.46697 117.416 -0.135623 63.631 5.87335 28.3324C8.86144 17.2898 17.4875 8.66377 28.5301 5.67567C48.3958 0.257747 128.351 0.0935669 128.351 0.0935669C128.351 0.0935669 208.307 0.0935669 228.172 5.51149ZM169.232 89.7356L102.903 128.154V51.3176L169.232 89.7356Z" fill="#FBC151"/>
</svg>
